<svg id="Camada_1" data-name="Camada 1" xmlns="http://www.w3.org/2000/svg" viewBox="0 0 662.61 380.16"><defs><style>.cls-1{fill:#ebebeb;}.cls-2{fill:#e0e0e0;}.cls-3{fill:#293042;}.cls-4{opacity:0.7;}.cls-5{fill:#fff;}.cls-6{fill:#263238;}.cls-7{fill:#f4d3bd;}.cls-8{fill:#eaae94;}.cls-9{fill:#455a64;}.cls-10{opacity:0.6;}.cls-11{fill:#677699;}.cls-12{opacity:0.3;}.cls-13{fill:#7a87a5;}.cls-14{fill:#000111;}.cls-15{fill:#7dce13;}.cls-16{fill:#fafafa;}.cls-17{fill:#c6ccdb;}.cls-18{fill:#b78876;}.cls-19{fill:#aa6550;}.cls-20{fill:#8891a5;}.cls-21{fill:#8f97aa;}</style></defs><g id="freepik--background-complete--inject-119"><path class="cls-1" d="M24.1,280.2s-2.9,6.8,13,11.5,24.8,6,24.8,6,3.4,1.4,1.8,3.9-6.7,6.4-5.1,9.7,6.1,4,12,2.1,19-5.3,20.2-5.6,3,0,2.2,1.9-9.6,13.2-4,17.1,21.3-3.9,23-4.7,2.6-.6,3.2.2-2.7,4.3-5.1,7.6-4.5,7.6-1.1,9.6,16,.5,33.9-15l7.9-7.7L148.2,306c-6.9-22.7-16.8-30.6-20.7-30.8s-4.4,4.6-4.2,8.7,1.1,8.9.2,9.2-1.8.1-2.8-1.5-10.1-16.5-16.9-16.3-5.5,14.5-5.7,16.5-2.1,1.3-2.9.4-10.1-10.8-14.1-15.5-7.9-6.6-11.3-4.6-.9,8-.9,10.9-3.6,2.3-3.6,2.3-8.2-3.7-24.2-8.1-17,3.1-17,3" transform="translate(-0.04 0.02)"/><path class="cls-2" d="M153.1,318.3c-11.7-3.3-32.4-9.6-50.2-14.9S69,293.4,57.3,290l-13.8-4-3.8-1.1-1-.3-.3-.1.3.1,1,.3,3.8,1c3.3.9,8,2.2,13.9,3.9,11.7,3.3,27.9,8,45.7,13.3s38.5,11.6,50.2,15" transform="translate(-0.04 0.02)"/><path class="cls-2" d="M66,306.2a1.61,1.61,0,0,1,.7-.4c.4-.2,1.1-.6,1.9-1,1.6-.8,3.9-1.9,6.5-3l6.5-2.9,2-.9c.2-.1.5-.2.7-.3a1.61,1.61,0,0,1-.7.4c-.4.2-1.1.6-1.9,1-1.7.8-4,1.8-6.5,2.9l-6.5,2.9-2,.9A.75.75,0,0,1,66,306.2Z" transform="translate(-0.04 0.02)"/><path class="cls-2" d="M84.4,296.8c-.1,0-2.5-4.6-5.3-10.4s-5.1-10.5-5-10.5,2.5,4.6,5.3,10.4S84.5,296.8,84.4,296.8Z" transform="translate(-0.04 0.02)"/><path class="cls-2" d="M111.4,306.1c-.1-.3-.1-.5-.2-.8-.1-.6-.2-1.3-.4-2.2-.3-1.8-.8-4.4-1.4-7.1s-1.2-5.3-1.7-7.1a14.24,14.24,0,0,0-.6-2.1c-.1-.3-.1-.5-.2-.8a6.89,6.89,0,0,1,.3.8c.2.5.4,1.2.7,2.1.5,1.8,1.2,4.3,1.8,7.1s1.1,5.3,1.3,7.2c.1.9.2,1.7.3,2.2A1.7,1.7,0,0,1,111.4,306.1Z" transform="translate(-0.04 0.02)"/><path class="cls-2" d="M96.6,318.3c.2-.2.3-.4.5-.5.4-.4.9-.8,1.5-1.4,1.3-1.1,3.1-2.7,5.1-4.4s3.8-3.2,5.2-4.3l1.6-1.3a2.09,2.09,0,0,1,.6-.4c-.2.2-.3.4-.5.5l-1.5,1.4c-1.3,1.1-3.1,2.7-5.1,4.4s-3.8,3.2-5.2,4.3l-1.6,1.3A2.09,2.09,0,0,1,96.6,318.3Z" transform="translate(-0.04 0.02)"/><path class="cls-2" d="M119.4,329.6a4.62,4.62,0,0,1,.7-.7l2-1.8c1.6-1.5,3.9-3.5,6.5-5.7s4.9-4.2,6.6-5.6l2-1.7a5.55,5.55,0,0,1,.8-.6,4.62,4.62,0,0,1-.7.7l-1.9,1.8c-1.6,1.5-3.9,3.5-6.5,5.7s-4.9,4.2-6.6,5.6l-2,1.7Z" transform="translate(-0.04 0.02)"/><path class="cls-2" d="M137.3,313.9a3.55,3.55,0,0,1-.2-1q-.3-1-.6-2.7c-.5-2.3-1.2-5.5-2.1-9s-1.8-6.6-2.4-8.9c-.3-1.1-.6-2-.8-2.7a3.55,3.55,0,0,1-.2-1c.1.3.3.7.4,1l.9,2.7c.7,2.3,1.6,5.4,2.5,8.9s1.6,6.7,2,9c.2,1.2.4,2.1.5,2.8Z" transform="translate(-0.04 0.02)"/><path class="cls-1" d="M475.5,104.8c-14-9.4-17.4-27.2-17.1-43.3,0-2.7-.3-5.5.9-7.9s4.2-4,6.6-2.9c2,.9,2.9,3.2,4.1,5.1a15.82,15.82,0,0,0,6.4,5.9c1.7.9,3.8,1.4,5.5.4,2.3-1.3,2.5-4.5,2.5-7.2L484,40a23.33,23.33,0,0,1,.7-7.9,8.36,8.36,0,0,1,5.1-5.7c2.5-.8,5.7.7,6.3,3.3a18.21,18.21,0,0,1,.1,3.3,2.71,2.71,0,0,0,1.7,2.6c1.1.3,2.1-.5,2.9-1.3,2.7-2.8,4.5-6.3,6.2-9.7s3.3-7,5.8-10,5.9-5.4,9.7-5.7,7.9,2,9,5.7-1.1,7.6-3.4,10.7a63.56,63.56,0,0,1-12.2,12.1,4.52,4.52,0,0,0-2,2.3c-.5,1.8,1.2,3.5,2.9,4.1,2,.6,4.2.4,6.2.6s4.3,1.1,5.2,3c1.1,2.7-1.1,5.6-3.3,7.5a51.58,51.58,0,0,1-14.9,9,19.6,19.6,0,0,0-5.6,2.8c-1.6,1.4-2.5,3.8-1.5,5.7s3.5,2.4,5.5,2,3.9-1.6,5.8-2.3c3.7-1.4,8.4-1.3,10.8,1.8a8.34,8.34,0,0,1,1,7.5,19.65,19.65,0,0,1-3.9,6.7,51.77,51.77,0,0,1-21.7,15.8c-8.5,2.9-16.4,3.8-24.9.9" transform="translate(-0.04 0.02)"/><path class="cls-2" d="M479.5,94.7a233.13,233.13,0,0,1,9-25.9c.9-2.2,1.8-4.5,2.7-6.7s1.8-4.4,2.8-6.4a131,131,0,0,1,6.4-11.6c2.2-3.6,4.5-6.9,6.6-10s4.2-5.9,6.1-8.4a97.18,97.18,0,0,1,10.1-11.1q1.95-1.8,3-2.7l.8-.7c.1-.1.2-.2.3-.2l-.3.3-.8.7c-.7.6-1.7,1.6-3,2.8a96.42,96.42,0,0,0-10,11.2c-1.9,2.5-4,5.3-6.1,8.4s-4.3,6.4-6.5,10a129.31,129.31,0,0,0-6.4,11.5c-1,2.1-1.9,4.2-2.8,6.4L488.7,69a233.13,233.13,0,0,0-9,25.9" transform="translate(-0.04 0.02)"/><path class="cls-2" d="M494.1,55.6c-.1-.4-.2-.7-.3-1.1-.2-.7-.3-1.8-.5-3.1-.4-2.6-.9-6.3-1.4-10.4s-1-7.7-1.5-10.4a28.6,28.6,0,0,0-.6-3.1,5,5,0,0,1-.2-1.2,2.28,2.28,0,0,1,.3,1.1,25,25,0,0,1,.7,3.1c.5,2.6,1.1,6.3,1.6,10.4s.9,7.6,1.2,10.4c.2,1.2.3,2.3.4,3.1A1.38,1.38,0,0,1,494.1,55.6Z" transform="translate(-0.04 0.02)"/><path class="cls-2" d="M528.3,48.6a5.9,5.9,0,0,1-1.4.2c-.9.1-2.2.2-3.7.4-3.1.4-7.5,1.1-12.2,2.1s-9,2.1-12,2.9c-1.5.4-2.8.8-3.6,1.1a6.47,6.47,0,0,1-1.3.4,5,5,0,0,1,1.3-.5q1.2-.45,3.6-1.2c3-.9,7.3-2.1,12-3.1A99.85,99.85,0,0,1,523.2,49c1.6-.2,2.9-.2,3.7-.3A7.08,7.08,0,0,1,528.3,48.6Z" transform="translate(-0.04 0.02)"/><path class="cls-2" d="M479.9,94a.76.76,0,0,1-.2-.4,6.66,6.66,0,0,1-.6-1.2c-.5-1.1-1.2-2.6-2.1-4.6-1.7-3.9-3.9-9.4-6.3-15.4s-4.5-11.5-6.2-15.5c-.8-1.9-1.5-3.5-2-4.6L462,51c-.1-.1-.1-.3-.2-.5a1.09,1.09,0,0,1,.2.4l.6,1.2c.5,1.1,1.2,2.6,2.1,4.6,1.7,3.9,3.9,9.4,6.3,15.4l6.2,15.5c.8,1.9,1.5,3.5,2,4.6l.5,1.3A1.69,1.69,0,0,1,479.9,94Z" transform="translate(-0.04 0.02)"/><path class="cls-2" d="M525.2,78.5a.76.76,0,0,1-.5.2l-1.3.5-4.8,1.7c-4.1,1.4-9.7,3.4-16,5.7s-11.9,4.2-16,5.5c-2.1.7-3.7,1.2-4.9,1.5l-1.3.4a.9.9,0,0,1-.5.1.76.76,0,0,1,.5-.2l1.3-.5c1.2-.4,2.9-1,4.8-1.7,4.1-1.4,9.7-3.4,16-5.6s11.9-4.2,16-5.5c2.1-.7,3.7-1.2,4.9-1.5l1.3-.4A1.69,1.69,0,0,1,525.2,78.5Z" transform="translate(-0.04 0.02)"/><path class="cls-1" d="M628.4,171.9a10.14,10.14,0,0,1-3.7,7,17.69,17.69,0,0,1-7.3,3.5c-5.1,1.3-11.1.4-16.2-1.2,2.1-5.5,8-8.8,11.1-10.3,5-2.3,15.3-3.6,16.1,1" transform="translate(-0.04 0.02)"/><path class="cls-1" d="M594.9,189a9,9,0,0,1,8.7-.3,11.37,11.37,0,0,1,5.5,7,4.93,4.93,0,0,1-.3,4.1,3.66,3.66,0,0,1-3.5,1.4,7.49,7.49,0,0,1-3.5-1.6c-3.6-2.8-6.6-6.1-6.9-10.6" transform="translate(-0.04 0.02)"/><path class="cls-2" d="M581.8,188.4a20.21,20.21,0,0,1,3.4-.6,12.11,12.11,0,0,1,3.8,0,36.53,36.53,0,0,1,4.6.7,16.24,16.24,0,0,1,7.5,3.8,15.37,15.37,0,0,1,1.7,1.9,2.18,2.18,0,0,1,.5.8,32.21,32.21,0,0,0-2.5-2.4,18.71,18.71,0,0,0-7.4-3.5,35,35,0,0,0-4.5-.7,15.28,15.28,0,0,0-3.7-.1C584.1,188.3,582.9,188.4,581.8,188.4Z" transform="translate(-0.04 0.02)"/><path class="cls-2" d="M620.7,173.6a8,8,0,0,1-1.6.8c-1,.5-2.5,1.1-4.4,1.9-3.7,1.6-8.9,3.7-14.7,5.9s-11.1,4.1-14.9,5.3c-1.9.6-3.5,1.1-4.6,1.4a10.46,10.46,0,0,1-1.7.4,11.11,11.11,0,0,1,1.6-.7l4.5-1.6c3.8-1.4,9.1-3.3,14.8-5.5l14.7-5.8,4.5-1.7C619.5,173.9,620.1,173.7,620.7,173.6Z" transform="translate(-0.04 0.02)"/><path class="cls-1" d="M590.7,183.5a20.61,20.61,0,0,0,7.8-16.8c-.1-1.6-.6-3.5-2.1-4.1s-3.2.6-4.2,1.9a17.32,17.32,0,0,0-1.9,19.1" transform="translate(-0.04 0.02)"/><path class="cls-2" d="M594.9,169.9a1.39,1.39,0,0,1,0,.9c0,.6-.1,1.5-.2,2.5a22.63,22.63,0,0,1-2.5,8,12.77,12.77,0,0,1-2.9,3.6,14.8,14.8,0,0,1-5.5,3,2.92,2.92,0,0,1-.9.2c0-.1,1.2-.5,3.1-1.4a16.1,16.1,0,0,0,3-2.1,13.12,13.12,0,0,0,2.7-3.5,25.94,25.94,0,0,0,2.6-7.7A18.22,18.22,0,0,1,594.9,169.9Z" transform="translate(-0.04 0.02)"/><path class="cls-1" d="M60.8,0a12.11,12.11,0,0,1,8.9,3.2,20.41,20.41,0,0,1,5.3,8c2.4,5.8,2.3,12.9,1.4,19.1-6.8-1.5-11.6-7.8-13.9-11.2C58.8,13.7,55.6,1.8,60.8,0" transform="translate(-0.04 0.02)"/><path class="cls-1" d="M86.5,36.3a10.3,10.3,0,0,1-1.8-10.1A13.61,13.61,0,0,1,92,18.6a5.8,5.8,0,0,1,4.8-.4A4.45,4.45,0,0,1,99,22.1a8.39,8.39,0,0,1-1.3,4.4c-2.6,4.6-6,8.7-11.2,9.8" transform="translate(-0.04 0.02)"/><path class="cls-2" d="M88.1,51.8a19.84,19.84,0,0,1-1.3-3.9,23.38,23.38,0,0,1-.7-4.5,48.63,48.63,0,0,1,0-5.4,20.55,20.55,0,0,1,3.1-9.4,21.1,21.1,0,0,1,1.9-2.3,3.91,3.91,0,0,1,.9-.7,18,18,0,0,0-2.4,3.3,23.06,23.06,0,0,0-2.9,9.2,48.66,48.66,0,0,0-.1,5.4,22,22,0,0,0,.5,4.4A17.19,17.19,0,0,1,88.1,51.8Z" transform="translate(-0.04 0.02)"/><path class="cls-2" d="M64,8.8c.4.5.8,1.1,1.2,1.7.7,1.1,1.8,2.8,3,4.8,2.5,4.1,5.9,9.8,9.4,16.2s6.7,12.3,8.8,16.6c1.1,2.1,1.9,3.9,2.5,5.1a15.39,15.39,0,0,1,.8,1.9c-.4-.6-.7-1.2-1.1-1.8l-2.7-5c-2.2-4.2-5.4-10.1-8.9-16.4L67.7,15.7c-1.1-2-2.1-3.7-2.8-4.9C64.6,10.1,64.3,9.5,64,8.8Z" transform="translate(-0.04 0.02)"/><path class="cls-1" d="M80.8,42.2a23.59,23.59,0,0,0-21-6.2c-1.9.4-4,1.3-4.4,3.2s1.3,3.6,2.9,4.6A20.23,20.23,0,0,0,81,42.7" transform="translate(-0.04 0.02)"/><path class="cls-2" d="M64.1,39.7a3.59,3.59,0,0,1,1.1-.2,24.51,24.51,0,0,1,3-.1,26.63,26.63,0,0,1,9.7,1.5,17.22,17.22,0,0,1,4.7,2.8,18.66,18.66,0,0,1,3,3.3A13,13,0,0,1,87,49.6a3,3,0,0,1,.4,1c-.1.1-.8-1.4-2.2-3.4a17.67,17.67,0,0,0-3-3.1,16.08,16.08,0,0,0-4.6-2.6,31.17,31.17,0,0,0-9.5-1.7C66.8,39.8,65.5,39.8,64.1,39.7Z" transform="translate(-0.04 0.02)"/><path class="cls-1" d="M298,368.3a11.1,11.1,0,0,1,0-8.4,20.34,20.34,0,0,1,5.1-6.9c4.1-3.7,10.2-5.8,15.7-6.8.8,6.1-3.1,12.1-5.3,15-3.4,4.6-12.4,10.9-15.5,7.1" transform="translate(-0.04 0.02)"/><path class="cls-1" d="M320.9,335.8a9.1,9.1,0,0,1-8,4.5,11.91,11.91,0,0,1-8.5-3.9,5.32,5.32,0,0,1-1.8-3.9,4,4,0,0,1,2.6-3,8.11,8.11,0,0,1,4.1-.2c4.7.8,9.1,2.4,11.6,6.5" transform="translate(-0.04 0.02)"/><path class="cls-2" d="M333.5,329.9a16.3,16.3,0,0,1-2.9,2.3,17,17,0,0,1-3.5,1.9,41.89,41.89,0,0,1-4.6,1.6,19.14,19.14,0,0,1-8.9.2,10.64,10.64,0,0,1-2.5-.9c-.6-.3-.9-.5-.8-.5a18.6,18.6,0,0,0,3.5,1,20.75,20.75,0,0,0,8.6-.3,41.07,41.07,0,0,0,4.6-1.5,16.15,16.15,0,0,0,3.5-1.7A12.47,12.47,0,0,1,333.5,329.9Z" transform="translate(-0.04 0.02)"/><path class="cls-2" d="M304.5,362.9a14.31,14.31,0,0,1,1.1-1.5c.7-.9,1.8-2.3,3.2-3.9,2.7-3.3,6.5-7.8,10.8-12.8s8.3-9.2,11.3-12.3c1.5-1.5,2.7-2.8,3.6-3.6a5.26,5.26,0,0,1,1.4-1.2,17.41,17.41,0,0,1-1.2,1.4c-.9,1-2,2.2-3.4,3.7-2.9,3.1-6.9,7.5-11.2,12.4l-10.9,12.6-3.3,3.8A18.48,18.48,0,0,1,304.5,362.9Z" transform="translate(-0.04 0.02)"/><path class="cls-1" d="M327.5,338.9a21.33,21.33,0,0,0,1,19.5c.9,1.5,2.3,3,4,2.8s2.6-2.1,3-3.8a18.31,18.31,0,0,0-7.6-18.8" transform="translate(-0.04 0.02)"/><path class="cls-2" d="M330.3,353.7a9.24,9.24,0,0,1-.5-.9,25.54,25.54,0,0,1-1-2.5,23.4,23.4,0,0,1-1.6-8.6,15.69,15.69,0,0,1,.9-4.8,17,17,0,0,1,1.9-3.5,11.23,11.23,0,0,1,1.8-2c.5-.4.7-.6.8-.6s-.9,1-2.2,2.9a15.44,15.44,0,0,0-1.7,3.4,14.35,14.35,0,0,0-.8,4.6,27,27,0,0,0,1.4,8.5A23,23,0,0,1,330.3,353.7Z" transform="translate(-0.04 0.02)"/></g><g id="freepik--Stains--inject-119"><path class="cls-3" d="M1.1,144.8c-4.2-24.3,4.2-51.1,23.6-66.4S74.2,62.1,93,78.1c13.2,11.2,19.4,28.4,27.3,43.8s19.8,31.1,36.9,33.8c14.8,2.3,29.6-5.8,44.5-3.8,14.5,1.9,26.6,13.7,30.8,27.7s1,29.5-6.4,42.1-19,22.3-31.6,29.7c-40.5,23.8-94.2,23-134-1.9s-63.8-73-60-119.8" transform="translate(-0.04 0.02)"/><g class="cls-4"><path class="cls-5" d="M1.1,144.8c-4.2-24.3,4.2-51.1,23.6-66.4S74.2,62.1,93,78.1c13.2,11.2,19.4,28.4,27.3,43.8s19.8,31.1,36.9,33.8c14.8,2.3,29.6-5.8,44.5-3.8,14.5,1.9,26.6,13.7,30.8,27.7s1,29.5-6.4,42.1-19,22.3-31.6,29.7c-40.5,23.8-94.2,23-134-1.9s-63.8-73-60-119.8" transform="translate(-0.04 0.02)"/></g><path class="cls-3" d="M235.6,362.3c13.1-9,19.3-28.8,11.1-42.4h0c-8.3-12.4-21.2-22.3-36-24.4s-31.1,4.9-37.7,18.3a34.34,34.34,0,0,0-.7,27.4,43.14,43.14,0,0,0,18.2,20.9C204.1,370.4,222.5,371.3,235.6,362.3Z" transform="translate(-0.04 0.02)"/><g class="cls-4"><path class="cls-5" d="M235.2,362.1c13.1-9,19.3-28.8,11.1-42.4h0c-8.3-12.4-21.2-22.3-36-24.4s-31.1,4.9-37.7,18.3a34.34,34.34,0,0,0-.7,27.4,43.14,43.14,0,0,0,18.2,20.9C203.6,370.2,222.1,371.1,235.2,362.1Z" transform="translate(-0.04 0.02)"/></g><path class="cls-3" d="M662.6,279.5c-.8-21-11.2-41.9-28.7-53.7s-41.8-13.4-59.8-2.4c-11.2,6.8-19.3,17.7-26.1,28.9-3.7,6.2-7.6,12.9-14.2,15.6-8.7,3.5-18.2-1.3-27.4-3.1a43.11,43.11,0,0,0-50,30.9c-8,33.2,15.3,56.9,40.2,71.3,27.8,16.1,63,16.1,93.2,5.3,19.8-7,38.3-18.6,51.9-34.8S663.4,300.6,662.6,279.5Z" transform="translate(-0.04 0.02)"/><g class="cls-4"><path class="cls-5" d="M662.3,279.8c-.8-21-11.2-41.9-28.7-53.7s-41.8-13.4-59.8-2.4c-11.2,6.8-19.3,17.7-26.1,28.9-3.7,6.2-7.6,13-14.2,15.6-8.7,3.5-18.2-1.3-27.4-3.1a43.11,43.11,0,0,0-50,30.9c-8,33.2,15.3,56.9,40.2,71.3,27.8,16.1,63,16.1,93.2,5.3,19.8-7,38.3-18.6,51.9-34.8S663.1,300.9,662.3,279.8Z" transform="translate(-0.04 0.02)"/></g><path class="cls-3" d="M614.8,99.7c-2.6-16.8-18.8-31.9-35.7-30.3h0c-15.8,2.3-31.3,10.2-40.1,23.4s-9.7,32.2.2,44.8c6.2,7.9,16,12.6,26,13.4a45.9,45.9,0,0,0,28.5-7.9C608,133.8,617.4,116.5,614.8,99.7Z" transform="translate(-0.04 0.02)"/><g class="cls-4"><path class="cls-5" d="M615.1,99.8c-2.6-16.8-18.8-31.9-35.7-30.3h0c-15.8,2.3-31.3,10.2-40.1,23.4s-9.7,32.2.2,44.8c6.2,7.9,16,12.6,26,13.4a45.9,45.9,0,0,0,28.5-7.9C608.2,133.9,617.6,116.6,615.1,99.8Z" transform="translate(-0.04 0.02)"/></g></g><g id="freepik--character-2--inject-119"><path class="cls-6" d="M419,103.9c2.2-.3,3.9-1.9,5.9-2.8a10.11,10.11,0,0,1,9.4.5c2.8,1.7,4.8,3.7,5,7l-3.7,4" transform="translate(-0.04 0.02)"/><path class="cls-7" d="M442.3,124.3l-5.9,35.4c-1,6-3.7,14.7-13.1,12.6h0c-8.1-2.4-8.9-10.5-7.9-16.2.5-2.7.8-4.9.8-5.2,0,0-8.9-2.4-8-11.4.4-4.4,2-13.3,3.5-21.3A16.91,16.91,0,0,1,430,104.5l.9.1C440.2,106.3,444.1,115.1,442.3,124.3Z" transform="translate(-0.04 0.02)"/><path class="cls-8" d="M416.1,150.9a21,21,0,0,0,12.1-2.1s-3.5,6.2-12.4,4.4Z" transform="translate(-0.04 0.02)"/><path class="cls-6" d="M412.4,123.7c.2.2,1.4-.3,3.1-.1a28.76,28.76,0,0,1,3,.8c.2-.1-.1-.3-.6-.7a6.81,6.81,0,0,0-2.4-.8,5.39,5.39,0,0,0-2.5.3C412.5,123.4,412.3,123.7,412.4,123.7Z" transform="translate(-0.04 0.02)"/><path class="cls-6" d="M426.1,125.3c.2.2,1.4-.3,3.1-.1a28.76,28.76,0,0,1,3,.8c.2-.1-.1-.3-.6-.7a6.81,6.81,0,0,0-2.4-.8,7.07,7.07,0,0,0-2.5.2Q426,125.15,426.1,125.3Z" transform="translate(-0.04 0.02)"/><path class="cls-6" d="M425.8,127.5a1,1,0,1,0,1.1-.8A1,1,0,0,0,425.8,127.5Z" transform="translate(-0.04 0.02)"/><path class="cls-6" d="M412.8,126.1a1,1,0,1,0,1.1-.8C413.4,125.2,413,125.6,412.8,126.1Z" transform="translate(-0.04 0.02)"/><path class="cls-6" d="M420.5,134.4a7.94,7.94,0,0,0-2.2-.6c-.4-.1-.7-.2-.7-.4a1.28,1.28,0,0,1,.4-1c.4-.8.9-1.7,1.3-2.6a59.26,59.26,0,0,0,3.1-6.8,50.2,50.2,0,0,0-3.6,6.5l-1.2,2.6a1.74,1.74,0,0,0-.3,1.4,1,1,0,0,0,.5.6,1.27,1.27,0,0,0,.6.1A7.14,7.14,0,0,0,420.5,134.4Z" transform="translate(-0.04 0.02)"/><path class="cls-6" d="M427.8,119.2c.1.4,1.3.3,2.7.6s2.5.9,2.8.6-.1-.5-.5-.9a5.38,5.38,0,0,0-2-1,4.11,4.11,0,0,0-2.2,0C428,118.8,427.7,119.1,427.8,119.2Z" transform="translate(-0.04 0.02)"/><path class="cls-6" d="M413.1,119.4c.1.3,1.3.2,2.7.4s2.6.6,2.8.3-.1-.4-.6-.7a5.22,5.22,0,0,0-4.2-.6C413.4,119.1,413.1,119.3,413.1,119.4Z" transform="translate(-0.04 0.02)"/><path class="cls-7" d="M440.8,130.9c.2-.1,6.4-1.2,5.5,5s-6.8,4-6.8,3.9S440.8,130.9,440.8,130.9Z" transform="translate(-0.04 0.02)"/><path class="cls-8" d="M441.8,137.7a1.24,1.24,0,0,0,.3.2,1.06,1.06,0,0,0,.8.1,2.39,2.39,0,0,0,1.5-2.2,2.92,2.92,0,0,0-.1-1.6,1.11,1.11,0,0,0-.7-.9.66.66,0,0,0-.7.2.77.77,0,0,0-.1.3s-.1-.1,0-.4c.1-.1.2-.3.3-.4a1.27,1.27,0,0,1,.6-.1,1.57,1.57,0,0,1,1,1.1,3.67,3.67,0,0,1,.1,1.8,2.82,2.82,0,0,1-1.9,2.4,1,1,0,0,1-1-.3C441.7,137.8,441.7,137.7,441.8,137.7Z" transform="translate(-0.04 0.02)"/><path class="cls-6" d="M409.9,116.3a12.94,12.94,0,0,0,11.9-1.4c2.4-1.6,4.4-4.1,7.2-4.7a7.31,7.31,0,0,1,5.5,1.4,13.31,13.31,0,0,1,3.8,4.4c-2.2,4.4-1.6,9.6-.9,14.5a2.2,2.2,0,0,0,.6,1.5,2,2,0,0,0,2.5-.3,7.48,7.48,0,0,0,2.1-3.9,25.88,25.88,0,0,0,1-10,17.14,17.14,0,0,0-3.8-9.2,16.26,16.26,0,0,0-11-5.5,20.55,20.55,0,0,0-12.1,2.9,11.52,11.52,0,0,0-4.2,4" transform="translate(-0.04 0.02)"/><path class="cls-6" d="M410.4,124.8c.6-2.5.9-5.6,1.4-8.1a14.76,14.76,0,0,0,11.1-2.8c1.6-1.3,3.1-3,5-3.6,2.6-.7,5.2.6,7.6,1.9l-.1-.1a11.07,11.07,0,0,1,3,3.1,34.66,34.66,0,0,0-1.1,15,2.65,2.65,0,0,0,1.2,1.9c1.3.8,2.2-.1,3.2-.7.7-.4,1.7-.7,2.3-.1a36.36,36.36,0,0,0,4.1-10,2.5,2.5,0,0,0,4.4,2.2,5.82,5.82,0,0,1-1.2-2.5,3.29,3.29,0,0,0,4.6-.3l.1-.1-2-2,2.8.1a14.63,14.63,0,0,1-5.3-4.6,23.24,23.24,0,0,0-4.9-5,6.5,6.5,0,0,0-6.7-.6,8.53,8.53,0,0,0-5.1-7.6,20.41,20.41,0,0,0-11.2-1.1c-2.5.5-5,2-8.2,4.3a30,30,0,0,0-4.3,3.7c-1.9,2.1-5.8,5.4-9.5,4.4l.3,3.8c2,1.9,6.1.2,6.1.2s-2.4,2.4-4.6,2.3l.6,3.3s3.4.6,4.9-2Z" transform="translate(-0.04 0.02)"/><path class="cls-9" d="M438.3,115.9s-.3-.5-.9-1.3a12.29,12.29,0,0,0-3.1-2.9,14.76,14.76,0,0,0-2.7-1,5.83,5.83,0,0,0-3.2-.1c-2.3.7-3.9,3-6.3,4.4a14.26,14.26,0,0,1-7.5,2.2,10.87,10.87,0,0,1-1.8-.1.85.85,0,0,0-.7,0,2.51,2.51,0,0,0-.7.4,7.56,7.56,0,0,0-1.9,2.1,5.52,5.52,0,0,1-3.7,2.2h-1.2a.6.6,0,0,1-.4-.1c0-.1.6,0,1.5-.1a5.33,5.33,0,0,0,3.5-2.2,7.4,7.4,0,0,1,2-2.3,5.94,5.94,0,0,1,.8-.4,2.77,2.77,0,0,1,.9-.1,10.28,10.28,0,0,0,1.7.1,13.58,13.58,0,0,0,7.3-2.2,38.12,38.12,0,0,0,3.2-2.4,8.62,8.62,0,0,1,3.3-2,6,6,0,0,1,3.5.1,13.59,13.59,0,0,1,2.8,1.1,10.18,10.18,0,0,1,3.1,3.1c.2.3.4.7.6,1C438.2,115.8,438.3,115.9,438.3,115.9Z" transform="translate(-0.04 0.02)"/><path class="cls-9" d="M448,121.3a1,1,0,0,1-.2.5,5.67,5.67,0,0,1-.8,1.3,2.43,2.43,0,0,1-2.1.9,1.59,1.59,0,0,1-1.2-.9,2.88,2.88,0,0,1-.3-1.6l.5.1a2.14,2.14,0,0,1-1.7,1.2,2.41,2.41,0,0,1-1.8-.7,4,4,0,0,1-1-1.5,9.25,9.25,0,0,1-.4-2.9,11.53,11.53,0,0,0-.3-2.6,4.84,4.84,0,0,1,.7,2.6,8.57,8.57,0,0,0,.5,2.7,3.81,3.81,0,0,0,.9,1.3,2,2,0,0,0,1.5.6,1.42,1.42,0,0,0,1.3-.9l.8-2.1-.4,2.2a1.6,1.6,0,0,0,1.1,1.9,2,2,0,0,0,1.8-.7,10.63,10.63,0,0,0,.9-1.1A1.24,1.24,0,0,1,448,121.3Z" transform="translate(-0.04 0.02)"/><path class="cls-9" d="M445.7,128.1a2.54,2.54,0,0,1-1.7.4,6.08,6.08,0,0,1-3.9-1.7,11.35,11.35,0,0,1-2.4-3.6,4.92,4.92,0,0,1-.6-1.7,6,6,0,0,1,.9,1.5,13.14,13.14,0,0,0,2.4,3.4,5.55,5.55,0,0,0,3.6,1.7A9.63,9.63,0,0,0,445.7,128.1Z" transform="translate(-0.04 0.02)"/><path class="cls-9" d="M445.4,129.2a2.57,2.57,0,0,1-1.5.1,7.72,7.72,0,0,1-3.5-1.2,6.51,6.51,0,0,1-2.6-2.6,3.51,3.51,0,0,1-.6-1.4l.9,1.2A9.63,9.63,0,0,0,444,129,5.9,5.9,0,0,1,445.4,129.2Z" transform="translate(-0.04 0.02)"/><path class="cls-9" d="M449.4,106.2a7.72,7.72,0,0,1-1.5-.2,10.77,10.77,0,0,0-3.6.2,9.88,9.88,0,0,0-3.3,1.5c-.8.5-1.2,1-1.3.9a4,4,0,0,1,1-1.2,9.08,9.08,0,0,1,3.4-1.7,9.78,9.78,0,0,1,3.8-.1A3.39,3.39,0,0,1,449.4,106.2Z" transform="translate(-0.04 0.02)"/><path class="cls-9" d="M441.1,100.8a7.73,7.73,0,0,1-1.3,8.2,18.71,18.71,0,0,0,1.3-4A19.66,19.66,0,0,0,441.1,100.8Z" transform="translate(-0.04 0.02)"/><path class="cls-9" d="M405.1,112a3.29,3.29,0,0,0,1.3.7,6.87,6.87,0,0,0,4-.5c.8-.3,1.7-.6,2.7-1a15.5,15.5,0,0,0,2.9-1.4c2-1.1,4-2.8,6.5-3.9a10.21,10.21,0,0,1,3.8-1,6.37,6.37,0,0,1,3.6.8c2.1,1.1,3.6,2.6,5.2,3.2a5.25,5.25,0,0,0,3.9.2,4.7,4.7,0,0,0,1.2-.9s0,.1-.2.3a3.11,3.11,0,0,1-.9.7,4.89,4.89,0,0,1-4.1,0c-1.7-.6-3.2-2.2-5.3-3.2a6.72,6.72,0,0,0-3.4-.7,12,12,0,0,0-3.7,1c-2.4,1.1-4.4,2.7-6.5,3.8a20.18,20.18,0,0,1-3,1.4c-1,.3-1.9.7-2.7.9a7.21,7.21,0,0,1-4.1.3,2.07,2.07,0,0,1-1-.6C405.3,112.3,405.2,112.2,405.1,112Z" transform="translate(-0.04 0.02)"/><path class="cls-9" d="M440,108.5a27.15,27.15,0,0,0-2.4-2.4,14.19,14.19,0,0,0-7.3-3.2,22.57,22.57,0,0,0-4.5.1c-1.2.1-2.5.1-3.7.1a11.08,11.08,0,0,1-2.5-.5,2,2,0,0,1-.8-.4,9.6,9.6,0,0,0,3.3.6,23,23,0,0,0,3.7-.2,23.41,23.41,0,0,1,4.6-.1,13.27,13.27,0,0,1,7.5,3.4,15.37,15.37,0,0,1,1.7,1.9A4.35,4.35,0,0,1,440,108.5Z" transform="translate(-0.04 0.02)"/><path class="cls-6" d="M421.2,138.9c0-.2,1.2-.3,2.3-1.3a7.55,7.55,0,0,0,1.1-1.4c.3-.4.5-.7.5-.6a2,2,0,0,1-.2.8,3.55,3.55,0,0,1-1.1,1.6,3.1,3.1,0,0,1-1.8.9C421.5,139,421.2,139,421.2,138.9Z" transform="translate(-0.04 0.02)"/><path class="cls-3" d="M582.1,310.7l16.4-9.3s14.9,13.5,18.1,12.1l-16.9-32.4-26.1,13.4Z" transform="translate(-0.04 0.02)"/><g class="cls-10"><path class="cls-5" d="M591.9,292.2a1.55,1.55,0,0,1,1-1.7,1.45,1.45,0,0,1,1.7,1,1.49,1.49,0,0,1-1.1,1.8,1.46,1.46,0,0,1-1.6-1.2" transform="translate(-0.04 0.02)"/></g><g class="cls-10"><path class="cls-5" d="M599.8,281.2l-2.6,1.5,17.1,30.5s1.4,1.1,2.3.4Z" transform="translate(-0.04 0.02)"/></g><path class="cls-11" d="M598.6,302.1c.2-.1-.2-.9-.1-2s.5-1.8.4-1.9-.9.6-1,1.9S598.5,302.2,598.6,302.1Z" transform="translate(-0.04 0.02)"/><path class="cls-11" d="M601.8,304.7c.2,0,.1-.9.5-1.8s1-1.4.9-1.6-1,.2-1.5,1.3S601.6,304.8,601.8,304.7Z" transform="translate(-0.04 0.02)"/><path class="cls-11" d="M606.9,304.6c0-.2-.9,0-1.6.9s-.6,1.8-.4,1.8.4-.7.9-1.4S606.9,304.7,606.9,304.6Z" transform="translate(-0.04 0.02)"/><path class="cls-11" d="M594.7,303.8c.1-.1-.5-.8-.9-1.7s-.5-1.8-.7-1.8-.4,1,.1,2S594.6,303.9,594.7,303.8Z" transform="translate(-0.04 0.02)"/><g class="cls-12"><polygon points="585.36 308.92 588.26 307.22 579.86 291.42 577.16 292.82 585.36 308.92"/></g><path class="cls-11" d="M591.3,305.6c.1,0-.2-.7-.8-1.6a9.27,9.27,0,0,0-1.4-1.4l-1-.7-.6-.3a.87.87,0,0,0-.9.4,1.39,1.39,0,0,0,0,.9,2.09,2.09,0,0,0,.4.6,6.47,6.47,0,0,0,.9.8,5.24,5.24,0,0,0,1.8,1,2.89,2.89,0,0,0,1.8.3c0-.1-.7-.2-1.6-.7a8.64,8.64,0,0,1-1.6-1,6,6,0,0,1-.8-.8c-.3-.3-.4-.6-.3-.8s.1-.1.2-.1.3.1.5.2l.9.6a17.41,17.41,0,0,1,1.4,1.2C590.9,305,591.2,305.7,591.3,305.6Z" transform="translate(-0.04 0.02)"/><path class="cls-11" d="M591.4,305.3a2.83,2.83,0,0,0-1.8.4,9.91,9.91,0,0,0-1.7,1.1c-.3.3-.5.6-.8.9a2,2,0,0,0-.3,1.5.74.74,0,0,0,.8.4c.2,0,.5-.1.7-.1a4.16,4.16,0,0,0,2.4-2.1,2.78,2.78,0,0,0,.3-1.8,8.45,8.45,0,0,1-.7,1.6,4,4,0,0,1-1.3,1.3,3.13,3.13,0,0,1-1,.5c-.4.1-.7.1-.8,0a1,1,0,0,1,.2-.9,5.5,5.5,0,0,1,.7-.9,6.09,6.09,0,0,1,1.5-1.2C590.8,305.5,591.5,305.4,591.4,305.3Z" transform="translate(-0.04 0.02)"/><path class="cls-3" d="M535.5,336.2l18.6-3s9.3,17.9,12.8,17.6l-4.6-36.2-29.1,3.6Z" transform="translate(-0.04 0.02)"/><g class="cls-10"><path class="cls-5" d="M551.1,322.2a1.36,1.36,0,1,1,2.7.3,1.5,1.5,0,0,1-1.7,1.3,1.44,1.44,0,0,1-1.1-1.7" transform="translate(-0.04 0.02)"/></g><g class="cls-10"><path class="cls-5" d="M562.3,314.6l-2.9.5,5.5,34.6s.9,1.5,2,1.2Z" transform="translate(-0.04 0.02)"/></g><path class="cls-13" d="M553.9,333.8c.2,0,.2-.9.6-1.9s1.2-1.5,1.1-1.7-1.1.2-1.6,1.4A2.53,2.53,0,0,0,553.9,333.8Z" transform="translate(-0.04 0.02)"/><path class="cls-13" d="M556,337.4c.2,0,.4-.8,1-1.5a9.16,9.16,0,0,1,1.4-1.1c0-.1-1-.2-1.9.7S555.8,337.4,556,337.4Z" transform="translate(-0.04 0.02)"/><path class="cls-13" d="M560.8,339c0-.2-.9-.3-1.8.3s-1.2,1.5-1,1.5.6-.5,1.4-1S560.8,339.2,560.8,339Z" transform="translate(-0.04 0.02)"/><path class="cls-13" d="M549.6,334c.2-.1-.2-.9-.2-1.9s.2-1.8,0-1.9-.7.8-.6,1.9S549.5,334.1,549.6,334Z" transform="translate(-0.04 0.02)"/><g class="cls-12"><polygon points="539.16 335.62 542.46 335.12 539.96 317.32 536.96 317.72 539.16 335.62"/></g><path class="cls-13" d="M545.9,334.6a3.72,3.72,0,0,0-.2-1.8,14.17,14.17,0,0,0-.8-1.8,6.07,6.07,0,0,0-.7-1,1.21,1.21,0,0,0-.5-.5.91.91,0,0,0-1,0,1.14,1.14,0,0,0-.3.8,1.85,1.85,0,0,0,.2.7,5.36,5.36,0,0,0,.5,1.1,6.39,6.39,0,0,0,1.3,1.5,3.19,3.19,0,0,0,1.6.9c0-.1-.5-.4-1.3-1.2a14.31,14.31,0,0,1-1.1-1.5c-.2-.3-.3-.7-.5-1s-.2-.7,0-.8.1,0,.2,0,.3.2.4.4.5.6.7.9c.3.5.6,1.1.9,1.7A8.23,8.23,0,0,0,545.9,334.6Z" transform="translate(-0.04 0.02)"/><path class="cls-13" d="M546.1,334.3a2.29,2.29,0,0,0-1.8-.2,6.53,6.53,0,0,0-2,.5,8.79,8.79,0,0,0-1,.6,1.44,1.44,0,0,0-.8,1.3.86.86,0,0,0,.6.7,1.7,1.7,0,0,0,.7.1,4.87,4.87,0,0,0,1.2-.1,4,4,0,0,0,1.8-1c.8-.8,1-1.6.9-1.6a7.41,7.41,0,0,1-1.2,1.3,3.46,3.46,0,0,1-1.6.8,3.4,3.4,0,0,1-1,.1c-.4,0-.7-.1-.7-.3a1,1,0,0,1,.5-.7l.9-.6a5.46,5.46,0,0,1,1.8-.6C545.4,334.3,546.1,334.4,546.1,334.3Z" transform="translate(-0.04 0.02)"/><path class="cls-14" d="M459.2,236.1c-.6.2,8.8,9.2,10.3,15.4,1.8,7.4,6.8,15.8,6.8,15.8l34.6,33.2,65.2-9.5,11,20.1-78.6,21.3a14.57,14.57,0,0,1-12.3-2.3l-50.7-37.7-29.1-36Z" transform="translate(-0.04 0.02)"/><path class="cls-14" d="M411.6,259l4.2,15.4c11.8,24.3,34.2,70.4,40.2,73.4,8.3,4.1,84.2-11,84.2-11l-1.7-20.9-63.8,5.5-42.6-74.9Z" transform="translate(-0.04 0.02)"/><path class="cls-9" d="M582.1,312.3a.58.58,0,0,1-.4.1l-1.3.4-4.9,1.4-18.2,5.2-27,7.7-15.9,4.5-4.2,1.2a19.18,19.18,0,0,1-13.3-1.5,25.45,25.45,0,0,1-3.9-2.4l-3.5-2.8c-2.3-1.8-4.6-3.7-6.8-5.5-4.4-3.7-8.7-7.2-12.6-10.8-7.9-7-14.8-13.6-20.4-19.2a176.45,176.45,0,0,1-12.7-14l-1.9-2.3c-.5-.7-.9-1.3-1.3-1.8l-.8-1.1a.62.62,0,0,1-.2-.4,3,3,0,0,1,.3.4c.2.3.5.6.8,1.1a15.5,15.5,0,0,0,1.3,1.7l1.9,2.3c2.8,3.4,7.1,8.2,12.8,13.9s12.6,12.2,20.5,19.1c4,3.5,8.2,7.1,12.6,10.7,2.2,1.8,4.5,3.6,6.8,5.5l3.5,2.7a24.45,24.45,0,0,0,3.8,2.4,19.8,19.8,0,0,0,12.9,1.4l4.2-1.2,15.9-4.5,27-7.5,18.2-5.1,5-1.4,1.3-.3Z" transform="translate(-0.04 0.02)"/><path class="cls-9" d="M432.9,259.9a2,2,0,0,0-.5,1,1.69,1.69,0,0,0,.3,1,1.13,1.13,0,0,0,1.6-.2c.2-.2.2-.4.3-.7a1.05,1.05,0,0,0-.5-.9,2.1,2.1,0,0,0-1.2-.2c0-.1.1-.2.4-.2a1,1,0,0,1,.9.2,1.48,1.48,0,0,1,.8,1.2,1.56,1.56,0,0,1-1.5,1.6,2.1,2.1,0,0,1-1.1-.4,1.74,1.74,0,0,1-.3-1.4,2.18,2.18,0,0,1,.5-.8C432.8,259.9,432.9,259.9,432.9,259.9Z" transform="translate(-0.04 0.02)"/><path class="cls-9" d="M466.1,250.9l-.6.6a22,22,0,0,1-1.8,1.4,15.42,15.42,0,0,1-7.1,2.4,15.63,15.63,0,0,1-7.4-1.2,12.81,12.81,0,0,1-2-1.1,3,3,0,0,1-.7-.5c0-.1,1,.6,2.8,1.3a16.47,16.47,0,0,0,14.2-1.1C465.2,251.7,466.1,250.8,466.1,250.9Z" transform="translate(-0.04 0.02)"/><path class="cls-15" d="M525,195.5s-45.3-17-48.1-19.5-14.7-16-19.7-17.8c0,0-8.1-2.1-13.6-1.8l-5.8.7v-4.4l-23.9.4-.7,5.9-4.1,1.5s-9.6,20-9.6,29.1-4.7,62.5,4.6,72.8c1.4,1.6,7,.6,7,.6s26.8-2.9,53.5-21.5l-9.8-11.3s-3.4-23.6.6-40.5c.1-.4.2-.7.3-1.1,11.5,5.7,29.3,14,34.5,14,0,0,29.2,9.9,34.6,3.5C525.6,205.5,525,195.5,525,195.5Z" transform="translate(-0.04 0.02)"/><path class="cls-15" d="M413.8,159.7s-9.4.4-15.4,7.9-16,39.9-16,39.9l-13.6-14-13,7.2s18.4,25.6,22,28.6a18.29,18.29,0,0,0,6.6,2.8c8.7.8,14.6-8.1,16.4-15.5l6-30.1" transform="translate(-0.04 0.02)"/><path class="cls-7" d="M359.7,198.5l-14-8.3s-4.2-10-2.6-10.5,3,5.6,3,5.6l2,1s-2.7-5.1-1.8-5.6,2.3,1,3,2.2c.6.9,2.4,4.6,2.4,4.6l.9-1.3-.7-3.4s-1-2.3.1-2.3,1.1-.1,1.9,1.8,1.4,3.3,1.4,3.3,4.1,2.4,5,2.1a5.53,5.53,0,0,1,4,.3s3.9,2,2.9,6.1" transform="translate(-0.04 0.02)"/><path class="cls-6" d="M454.4,161a15.87,15.87,0,0,1-.8,2.5,27.82,27.82,0,0,0-.7,12.5c.3,1.6.5,2.6.5,2.6a10.43,10.43,0,0,1-.8-2.5,22.78,22.78,0,0,1-.5-6.4,23.37,23.37,0,0,1,1.2-6.3A12.81,12.81,0,0,1,454.4,161Z" transform="translate(-0.04 0.02)"/><path class="cls-6" d="M416.9,159.8a7.84,7.84,0,0,1-.2-3.4,10,10,0,0,1,.5-3.4,19.3,19.3,0,0,1,0,3.4A18.7,18.7,0,0,1,416.9,159.8Z" transform="translate(-0.04 0.02)"/><path class="cls-6" d="M422.5,160.7a16,16,0,0,1,.1-3.8,12.56,12.56,0,0,1,.6-3.8,16,16,0,0,1-.1,3.8A12.09,12.09,0,0,1,422.5,160.7Z" transform="translate(-0.04 0.02)"/><path class="cls-6" d="M430,160.4c-.1,0,.2-1.7.3-3.7s0-3.7.2-3.7A12.42,12.42,0,0,1,430,160.4Z" transform="translate(-0.04 0.02)"/><path class="cls-6" d="M435.4,159.1c-.1,0,.1-1.4,0-3.1s-.3-3.1-.1-3.1a5.58,5.58,0,0,1,.6,3.1A4.88,4.88,0,0,1,435.4,159.1Z" transform="translate(-0.04 0.02)"/><path class="cls-6" d="M400.1,172c.1,0,0,13.1-.3,29.2s-.7,29.2-.8,29.2,0-13.1.3-29.2S400,172,400.1,172Z" transform="translate(-0.04 0.02)"/><path class="cls-16" d="M399.2,202.7a12.81,12.81,0,0,1-2-1.1,21.55,21.55,0,0,0-4.8-2.4,13.18,13.18,0,0,0-5.2-.8c-1.4.1-2.2.5-2.2.4a4,4,0,0,1,2.1-.7,12.36,12.36,0,0,1,5.4.6,22.31,22.31,0,0,1,4.8,2.6A5.53,5.53,0,0,1,399.2,202.7Z" transform="translate(-0.04 0.02)"/><path class="cls-16" d="M453.9,193.5a2.19,2.19,0,0,1-.5.3l-1.4.8a21.82,21.82,0,0,1-2.2,1.2,28.71,28.71,0,0,1-3,1.4c-1.1.4-2.4,1-3.8,1.5s-2.9,1-4.4,1.5a92.19,92.19,0,0,1-10.4,2.4,94.51,94.51,0,0,1-10.7.9c-1.6,0-3.2,0-4.7-.1l-4.1-.3a25.74,25.74,0,0,1-3.3-.5c-1-.2-1.8-.3-2.5-.5l-1.6-.4a4.33,4.33,0,0,1-.5-.1h.6l1.6.3c.7.1,1.5.3,2.5.4s2.1.3,3.3.4,2.6.2,4,.3,3,.1,4.6.1a74.86,74.86,0,0,0,21-3.3,45.25,45.25,0,0,0,4.4-1.5c1.4-.6,2.6-1,3.8-1.5s2.1-1,3-1.4,1.6-.8,2.3-1.1l1.4-.7A1.27,1.27,0,0,0,453.9,193.5Z" transform="translate(-0.04 0.02)"/><path class="cls-16" d="M480.2,179c0,.1-.8.6-2,1.7a32,32,0,0,0-4.3,4.7,27.31,27.31,0,0,0-3,5.6c-.6,1.5-.8,2.5-.9,2.5a1.7,1.7,0,0,1,.1-.7,13.32,13.32,0,0,1,.5-1.9,22,22,0,0,1,7.3-10.4,9.06,9.06,0,0,1,1.6-1.1A2.77,2.77,0,0,1,480.2,179Z" transform="translate(-0.04 0.02)"/><path class="cls-16" d="M485.3,180.6c0,.1-1,.5-2.5,1.5a22.07,22.07,0,0,0-8.5,10.6,21.61,21.61,0,0,1-.9,2.7c-.1-.1,0-.3.1-.8a16,16,0,0,1,.5-2.1,19.81,19.81,0,0,1,8.7-10.8,11.4,11.4,0,0,1,1.9-1A5.64,5.64,0,0,1,485.3,180.6Z" transform="translate(-0.04 0.02)"/><path class="cls-16" d="M454.2,189.4c-.2.1-.3.2-.5.2l-1.5.6a15.43,15.43,0,0,1-2.4.9c-1,.3-2,.7-3.2,1.1-2.4.8-5.2,1.5-8.4,2.3a99.48,99.48,0,0,1-10.5,1.8,102.65,102.65,0,0,1-10.6.7,77.76,77.76,0,0,1-8.7-.3l-3.3-.3c-1-.1-1.8-.2-2.5-.3l-1.6-.2a1.27,1.27,0,0,1-.6-.1h.6l1.6.1a16.86,16.86,0,0,0,2.5.2c1,0,2.1.2,3.3.2,2.5.2,5.4.2,8.7.2a102.65,102.65,0,0,0,10.6-.7c3.8-.4,7.3-1.1,10.5-1.7a85.55,85.55,0,0,0,8.4-2.1c1.2-.3,2.2-.7,3.2-1s1.7-.6,2.4-.8l1.5-.5A.55.55,0,0,1,454.2,189.4Z" transform="translate(-0.04 0.02)"/><path class="cls-16" d="M399.7,195.1a39.15,39.15,0,0,0-5.3-2.9,30,30,0,0,0-5.9-1.5,5.44,5.44,0,0,1,1.8,0,14.35,14.35,0,0,1,4.2,1,14.15,14.15,0,0,1,3.8,2.1A3.53,3.53,0,0,1,399.7,195.1Z" transform="translate(-0.04 0.02)"/><path class="cls-7" d="M539.9,191.8l-9.9,3.3-5,.4v10.7l5.1,1.8,13.8-.8s7.9,4,9.9,3.8,2-.9,2-.9l-9.8-5.9a5.58,5.58,0,0,1,3.8.5c2.2,1,6.1,3.3,7.5,2.6s1.1-1.1,1.1-1.1l-7.7-4.8s6.5,2.9,7.7,2.4a2,2,0,0,0,1.2-1.5l-4.3-3.8-6.4-5Z" transform="translate(-0.04 0.02)"/><path class="cls-8" d="M534.4,196.2a5.36,5.36,0,0,1,1.1.5c.7.3,1.6.8,2.8,1.4s2.6,1.3,4.2,2.2a3.13,3.13,0,0,1,1.1.9,3.51,3.51,0,0,1,.6,1.4,3,3,0,0,1-.3,1.6,1.94,1.94,0,0,1-1.4.9,4.11,4.11,0,0,1-2.2,0,10.66,10.66,0,0,1-1.9-.7q-1.8-.75-3.3-1.5l.3-.1a5.78,5.78,0,0,1-2.3,1.8,5.7,5.7,0,0,1-2.2.4,5.9,5.9,0,0,1-1.4-.2,4.2,4.2,0,0,1-.5-.2,12.25,12.25,0,0,0,1.9.2,5.37,5.37,0,0,0,2.1-.5,5.2,5.2,0,0,0,2.1-1.8l.1-.1.2.1q1.5.75,3.3,1.5a6.36,6.36,0,0,0,1.8.6,6.05,6.05,0,0,0,1.9,0,1.9,1.9,0,0,0,1.1-.7,2.66,2.66,0,0,0,.3-1.2,2.58,2.58,0,0,0-1.5-2c-1.5-.9-2.9-1.6-4.1-2.3l-2.8-1.5C535,196.6,534.7,196.4,534.4,196.2Z" transform="translate(-0.04 0.02)"/><path class="cls-8" d="M551.3,201.4a20,20,0,0,1-4.4-2.7,6.47,6.47,0,0,1-.9-.8h.3a6.94,6.94,0,0,1-2.8.8,2,2,0,0,1-1.1-.1c0-.1.4-.1,1.1-.2a6.22,6.22,0,0,0,2.6-.9l.2-.1.1.1a5.72,5.72,0,0,0,.8.7C548.6,199.2,550,200.3,551.3,201.4Z" transform="translate(-0.04 0.02)"/><path class="cls-3" d="M568.1,278a19.64,19.64,0,0,1-5.9-.9c-19-5.7-18-19.4-17.2-30.4.7-10.3.8-16.7-7.7-19.9-11.2-4.2-15.8-.1-22.8,6.1-8.3,7.4-18.7,16.5-43.8,12.8-13-1.9-34-8.8-59.7-30.6a202.36,202.36,0,0,1-25.3-25.4l3.9-3.1c.4.5,38.8,47.8,81.9,54.2,22.8,3.4,31.8-4.6,39.7-11.6,7.1-6.3,13.8-12.2,27.9-7,12.4,4.6,11.6,15.4,10.9,24.9-.8,11.1-1.5,20.7,13.7,25.3,17.1,5.1,39.6-22,53-38.2,4.8-5.8,8.1-10,10.8-12.1l3.8,3c-1.7,2-6.3,7-10.7,12.3C606.8,253.9,586.8,278,568.1,278Z" transform="translate(-0.04 0.02)"/><path class="cls-5" d="M497.7,238.7a2.48,2.48,0,0,1-.6.4,10.42,10.42,0,0,1-1.8,1,27.69,27.69,0,0,1-6.3,2.2,29.38,29.38,0,0,1-6.6.5,13.55,13.55,0,0,1-2-.2,1.85,1.85,0,0,1-.7-.2,19.53,19.53,0,0,1,2.7,0,33.28,33.28,0,0,0,12.8-2.6A12,12,0,0,1,497.7,238.7Z" transform="translate(-0.04 0.02)"/><path class="cls-5" d="M526.9,223.6a8.6,8.6,0,0,1-1.6-.1,11.08,11.08,0,0,0-7.2,2.5,10.59,10.59,0,0,1-1.2,1,3.25,3.25,0,0,1,1-1.3,9.68,9.68,0,0,1,7.4-2.6A4.94,4.94,0,0,1,526.9,223.6Z" transform="translate(-0.04 0.02)"/><path class="cls-5" d="M558.7,270.8a5.68,5.68,0,0,1-2.2-.7,14.91,14.91,0,0,1-7.6-8.2,5.93,5.93,0,0,1-.5-2.3,21.68,21.68,0,0,1,.8,2.2,14.08,14.08,0,0,0,3,4.6,16.22,16.22,0,0,0,4.4,3.4C557.9,270.5,558.8,270.7,558.7,270.8Z" transform="translate(-0.04 0.02)"/><path class="cls-5" d="M628.4,223.9a59,59,0,0,1-7.9,7.9A65.5,65.5,0,0,1,628.4,223.9Z" transform="translate(-0.04 0.02)"/><path class="cls-3" d="M390.1,190.8h0a5.8,5.8,0,0,1-8.1.4l-8.8-8,7.7-8.5,8.8,8A5.63,5.63,0,0,1,390.1,190.8Z" transform="translate(-0.04 0.02)"/><path class="cls-6" d="M390.1,190.8a9.13,9.13,0,0,0,.8-1.3,6.07,6.07,0,0,0,.3-4.2,5.15,5.15,0,0,0-1.6-2.5l-2.6-2.4c-1.9-1.7-4-3.6-6.2-5.6h.3l-3.9,4.3-3.9,4.2V183l6.1,5.6L382,191a6,6,0,0,0,2.6,1.4,5.37,5.37,0,0,0,4.1-.7,3.39,3.39,0,0,0,1.4-.9,4.26,4.26,0,0,1-1.2,1.1,5.91,5.91,0,0,1-4.3.8,6.19,6.19,0,0,1-2.8-1.4c-.8-.7-1.7-1.5-2.6-2.4l-6.2-5.6-.2-.2.2-.2,3.9-4.3,3.9-4.2.2-.2.2.2,6.1,5.6,2.6,2.4a5.44,5.44,0,0,1,1.6,2.6,5.84,5.84,0,0,1-.4,4.3A2.84,2.84,0,0,1,390.1,190.8Z" transform="translate(-0.04 0.02)"/><path class="cls-17" d="M345.8,142.8l-15.1-12.5a2.73,2.73,0,0,1-.4-3.9h0a2.73,2.73,0,0,1,3.9-.4h0l15.1,12.5Z" transform="translate(-0.04 0.02)"/><path class="cls-17" d="M331.5,161.1l-15.1-12.5a2.73,2.73,0,0,1-.4-3.9h0a2.73,2.73,0,0,1,3.9-.4h0L335,156.8Z" transform="translate(-0.04 0.02)"/><path class="cls-3" d="M380.2,158.7l.4-.5a5.27,5.27,0,0,0-.7-7.5,5.41,5.41,0,0,0-6.7-.1L351,132.1l-25.4,30.3,22.7,18a5.27,5.27,0,0,0,1.1,7h0a5.33,5.33,0,0,0,7.4-.6,15.42,15.42,0,0,0,21.3-2.7l3.6-4.5A15.34,15.34,0,0,0,380.2,158.7Z" transform="translate(-0.04 0.02)"/><path class="cls-6" d="M380.2,158.7l.2.2.5.5a6.47,6.47,0,0,1,.8.9l.5.6.5.7a13.52,13.52,0,0,1,2,4.2,15.68,15.68,0,0,1-2.2,13.3c-.8,1.1-1.8,2.2-2.7,3.4a25.86,25.86,0,0,1-3.1,3.5,15.25,15.25,0,0,1-9.3,4.1,15.72,15.72,0,0,1-10.7-3.1h.3a5.56,5.56,0,0,1-3.6,1.9,5.43,5.43,0,0,1-4.1-1.2h0a5.44,5.44,0,0,1-1.1-7.3v.3l-17.6-14-5.1-4.1-.2-.1.2-.2c9.2-11,17.9-21.3,25.4-30.3l.1-.2.2.1,22.1,18.5H373a5.42,5.42,0,0,1,7.9,7.3c-.2.2-.3.4-.5.6l-.2.4a3,3,0,0,1,.6-.9,5.36,5.36,0,0,0-1.3-7.3,5.39,5.39,0,0,0-3-1,5.46,5.46,0,0,0-3.3,1.1l-.1.1-.1-.1-22.2-18.4h.3l-25.3,30.4v-.4l5.1,4.1,17.5,14,.2.1-.1.2a5.1,5.1,0,0,0,1,6.7h0a5.06,5.06,0,0,0,7.1-.6l.1-.1.2.1a15.27,15.27,0,0,0,19.5-1,25.17,25.17,0,0,0,3-3.5c.9-1.2,1.9-2.3,2.7-3.4a15.22,15.22,0,0,0,.4-17.2,4.23,4.23,0,0,0-.5-.7l-.5-.6a6.47,6.47,0,0,0-.8-.9l-.5-.5Z" transform="translate(-0.04 0.02)"/><rect class="cls-2" x="343.72" y="144.21" width="4" height="20.3" transform="translate(6.4 322.42) rotate(-50.41)"/><path class="cls-6" d="M380.2,158.7a8.34,8.34,0,0,1-.8,1.2c-.6.8-1.4,1.8-2.4,3.1-2.1,2.6-5,6.2-8.3,10s-6.2,7.3-8.4,10l-2.5,3a10,10,0,0,1-1,1.1,8.34,8.34,0,0,1,.8-1.2c.6-.8,1.4-1.8,2.4-3.1,2.1-2.6,5-6.2,8.3-10l8.4-10,2.5-3A5.24,5.24,0,0,1,380.2,158.7Z" transform="translate(-0.04 0.02)"/><path class="cls-6" d="M373.1,150.5a12.49,12.49,0,0,1-.9,1.2c-.6.8-1.5,1.9-2.6,3.3-2.2,2.7-5.4,6.5-8.9,10.6s-6.6,7.7-9,10.5c-1.1,1.3-2,2.4-2.7,3.2a5.73,5.73,0,0,1-1.1,1.1l.9-1.2c.6-.8,1.5-1.9,2.6-3.3,2.2-2.7,5.4-6.5,8.9-10.6l9-10.5,2.7-3.2A11.41,11.41,0,0,0,373.1,150.5Z" transform="translate(-0.04 0.02)"/></g><g id="freepik--character-1--inject-119"><path class="cls-18" d="M273.5,70.1c-.1.3-11.2,8.7-11.2,8.7l-.2,7.1,5.7.8,8.1-4.6,5.5-.3s3.4,1.8,4,2a1.79,1.79,0,0,0,2.2-.9l-5-3.6s5.5,3.1,6.1,2.7a1.73,1.73,0,0,0-.2-2.4.52.52,0,0,0-.4-.2s1.7.9,2.8.2a1.3,1.3,0,0,0,.7-1.6l-7.3-6.6a5.33,5.33,0,0,0-3.4-1.3Z" transform="translate(-0.04 0.02)"/><path class="cls-19" d="M274.4,73.2a2.77,2.77,0,0,1-.1.9c-.1.6-.2,1.4-.4,2.3l-.1-.2L278,76a5.11,5.11,0,0,1,2.7.4,2,2,0,0,1,1.1,1.1,1.81,1.81,0,0,1,.1,1.6v.1h-.1c-1.3.8-3,.6-4.5.7a5.1,5.1,0,0,0-3.1,1.1,23.91,23.91,0,0,0-2.3,2.2,8.34,8.34,0,0,1-2.3,1.9,4.51,4.51,0,0,1-2.5.7,9.46,9.46,0,0,1-3.7-.8,3.38,3.38,0,0,1-1.2-.6,6.47,6.47,0,0,1,1.3.4,11.33,11.33,0,0,0,3.6.6,4.76,4.76,0,0,0,2.3-.7,13,13,0,0,0,2.2-1.9,25,25,0,0,1,2.3-2.3,5.23,5.23,0,0,1,3.4-1.2c1.5-.1,3.1.1,4.2-.6l-.1.1a1.71,1.71,0,0,0-.9-2.1,6.9,6.9,0,0,0-2.5-.4l-4.2.2h-.2v-.2c.2-.9.4-1.7.5-2.3A6.89,6.89,0,0,0,274.4,73.2Z" transform="translate(-0.04 0.02)"/><path class="cls-19" d="M288.6,79.5a5.24,5.24,0,0,1-1.9-1.1c-1.1-.8-2.3-2.3-3.9-3.4a2.08,2.08,0,0,0-1.2-.5,6.53,6.53,0,0,0-1.4,0h-2.4a17,17,0,0,1-2.2-.1,7.84,7.84,0,0,1,2.2-.2l2.3-.1h1.4a4.71,4.71,0,0,1,1.5.6,42.72,42.72,0,0,1,3.8,3.6A11.46,11.46,0,0,1,288.6,79.5Z" transform="translate(-0.04 0.02)"/><path class="cls-3" d="M289.1,291.1l-.3,17.5s17.7,6.1,18,9.4l-33.9.7-.7-27.3Z" transform="translate(-0.04 0.02)"/><g class="cls-10"><path class="cls-5" d="M278.3,307.4a1.3,1.3,0,0,0,.7,2.5,1.45,1.45,0,0,0,1-1.7,1.42,1.42,0,0,0-1.7-.8" transform="translate(-0.04 0.02)"/></g><g class="cls-10"><path class="cls-5" d="M272.8,318.7v-2.8l32.5.4s1.5.6,1.4,1.7Z" transform="translate(-0.04 0.02)"/></g><path class="cls-20" d="M289.3,308.5c0,.2-.8.3-1.6.8s-1.2,1.2-1.4,1.2.1-1,1.1-1.7S289.4,308.3,289.3,308.5Z" transform="translate(-0.04 0.02)"/><path class="cls-20" d="M292.9,309.9c0,.2-.7.5-1.2,1.2s-.7,1.5-.9,1.5-.3-.9.4-1.8S292.9,309.7,292.9,309.9Z" transform="translate(-0.04 0.02)"/><path class="cls-20" d="M295,314.1a1.75,1.75,0,0,1,0-1.7c.4-.9,1.2-1.3,1.2-1.2s-.4.6-.7,1.4S295.2,314.1,295,314.1Z" transform="translate(-0.04 0.02)"/><path class="cls-6" d="M289,304.5c-.1.1-.8-.1-1.8,0s-1.7.4-1.8.2.6-.8,1.7-.8S289,304.3,289,304.5Z" transform="translate(-0.04 0.02)"/><g class="cls-12"><polygon points="288.96 294.62 288.96 297.72 272.26 297.92 272.16 295.12 288.96 294.62"/></g><path class="cls-6" d="M289,300.9a4.85,4.85,0,0,1-1.7,0,12.09,12.09,0,0,1-1.8-.5,4.67,4.67,0,0,1-1-.5,1,1,0,0,1-.5-.4.74.74,0,0,1-.1-.9,1,1,0,0,1,.7-.4,1.27,1.27,0,0,1,.6.1l1.1.3a5.37,5.37,0,0,1,1.6,1c.8.7,1.1,1.3,1,1.4s-.5-.5-1.3-1a10.93,10.93,0,0,0-1.5-.8c-.3-.1-.7-.2-1-.3s-.7-.1-.8.1,0,.1,0,.2a1.38,1.38,0,0,0,.4.3,4.05,4.05,0,0,0,.9.5,8.51,8.51,0,0,0,1.7.6C287.8,300.7,288.4,300.8,289,300.9Z" transform="translate(-0.04 0.02)"/><path class="cls-6" d="M288.7,301.2a3.32,3.32,0,0,1-.5-1.6,6.15,6.15,0,0,1,.2-1.9,4.18,4.18,0,0,1,.4-1,1.44,1.44,0,0,1,1.1-.9.75.75,0,0,1,.7.5,1.42,1.42,0,0,1,.2.6,2,2,0,0,1,0,1.1,4.49,4.49,0,0,1-.7,1.8c-.6.9-1.3,1.1-1.3,1a8,8,0,0,0,1-1.3,3,3,0,0,0,.5-1.6,3.4,3.4,0,0,0-.1-1q-.15-.6-.3-.6a1.13,1.13,0,0,0-.6.6,3.55,3.55,0,0,0-.4.9,5.08,5.08,0,0,0-.3,1.7C288.6,300.5,288.8,301.1,288.7,301.2Z" transform="translate(-0.04 0.02)"/><path class="cls-14" d="M227.3,192.2c.8,1.2,37.7,39.5,37.7,39.5s-4.6,17.6-2.9,32.9,6.6,39.7,6.6,39.7l26.7-2.1-7.3-83L259,180.7Z" transform="translate(-0.04 0.02)"/><path class="cls-3" d="M298.3,271.8l3.3,17.2s18.6,2.4,19.5,5.6L288,302.1l-6.2-26.6Z" transform="translate(-0.04 0.02)"/><g class="cls-10"><path class="cls-5" d="M291,289.9a1.44,1.44,0,0,0-.6,1.8,1.32,1.32,0,0,0,1.7.6,1.46,1.46,0,0,0,.6-1.9,1.4,1.4,0,0,0-1.9-.4" transform="translate(-0.04 0.02)"/></g><g class="cls-10"><path class="cls-5" d="M288,302.1l-.5-2.7,31.9-6.2s1.6.3,1.7,1.4Z" transform="translate(-0.04 0.02)"/></g><path class="cls-21" d="M302.1,288.7c0,.2-.8.4-1.4,1.1s-.9,1.5-1.1,1.5-.1-1,.7-1.9S302.1,288.5,302.1,288.7Z" transform="translate(-0.04 0.02)"/><path class="cls-21" d="M305.9,289.3c.1.1-.6.6-1,1.4s-.4,1.6-.5,1.6a1.84,1.84,0,0,1,0-1.9C304.9,289.4,305.8,289.2,305.9,289.3Z" transform="translate(-0.04 0.02)"/><path class="cls-21" d="M308.8,293.1c-.1.1-.5-.7-.3-1.7s.9-1.5,1-1.4-.3.7-.4,1.5S309,293,308.8,293.1Z" transform="translate(-0.04 0.02)"/><path class="cls-6" d="M300.9,284.9c0,.2-.8.1-1.7.4s-1.5.7-1.7.6.4-.9,1.5-1.2S301,284.7,300.9,284.9Z" transform="translate(-0.04 0.02)"/><g class="cls-12"><polygon points="298.96 275.22 299.46 278.32 283.16 281.82 282.56 279.12 298.96 275.22"/></g><path class="cls-6" d="M300.2,281.4a3.29,3.29,0,0,1-1.7.4,9.25,9.25,0,0,1-2.9-.4l-.6-.3a.67.67,0,0,1-.3-.8.63.63,0,0,1,.6-.5,1.27,1.27,0,0,1,.6-.1,4.1,4.1,0,0,1,1.1.1,6.36,6.36,0,0,1,1.8.6,3.94,3.94,0,0,1,1.3,1.1,6.4,6.4,0,0,0-1.5-.8,8.45,8.45,0,0,0-1.7-.5,3.4,3.4,0,0,0-1-.1c-.4,0-.7,0-.7.2s0,.1.1.2a.76.76,0,0,0,.4.2l1,.3a11.14,11.14,0,0,0,1.7.2A5.84,5.84,0,0,0,300.2,281.4Z" transform="translate(-0.04 0.02)"/><path class="cls-6" d="M300,281.7c-.1,0-.5-.5-.8-1.5a5.84,5.84,0,0,1-.2-1.9,4.25,4.25,0,0,1,.2-1.1,1.44,1.44,0,0,1,.9-1.1.83.83,0,0,1,.8.3l.3.6c.1.4.2.7.3,1.1a6.28,6.28,0,0,1-.3,1.9c-.5,1-1.1,1.4-1.1,1.3a10.09,10.09,0,0,0,.7-1.5,4.68,4.68,0,0,0,.2-1.7,4.4,4.4,0,0,0-.2-1c-.1-.3-.3-.6-.5-.5a1.28,1.28,0,0,0-.5.7,5,5,0,0,0-.1,2.7C299.8,281.1,300.1,281.7,300,281.7Z" transform="translate(-0.04 0.02)"/><path class="cls-14" d="M161.4,166.1s-2.5,15.8,7.1,26.1,19.9,14.9,38.1,14.1,57.5.1,57.5.1,1.7,21,6.2,38.2,13.6,43,13.6,43l17.8-1.7s-4.8-93.6-6-101.8-15-12.5-22.5-14.9S223.1,158,223.1,158l-38.8-5.4Z" transform="translate(-0.04 0.02)"/><path class="cls-9" d="M301.8,285.8h-.3l-.9.1-3.6.3-13.6.9h-.1V287c-2.4-7.7-5.5-17.6-9.1-29.1-1.8-5.7-3.7-11.9-5.7-18.3-1-3.2-2.1-6.5-2.8-9.9a62.94,62.94,0,0,1-1.5-10.6,47.54,47.54,0,0,1,.7-12.5l.2.3c-10.8-.2-21.1-.3-30.3-.4-4.6,0-9,0-13,.1s-7.8.2-11.3.2c-6.9,0-12.4-.4-16.2-.7-1.9-.2-3.4-.3-4.3-.4l-1.1-.1-.4-.1h.4l1.1.1,4.4.4c3.8.3,9.3.6,16.2.5,3.4,0,7.2-.2,11.3-.3s8.4-.1,13-.1c9.2,0,19.5.1,30.3.3h.3l-.1.3a51.37,51.37,0,0,0-.6,12.4,61.78,61.78,0,0,0,1.5,10.5c.7,3.4,1.8,6.7,2.8,9.9,2,6.4,3.9,12.6,5.6,18.3,3.5,11.5,6.6,21.5,9,29.1l-.1-.1,13.6-.8,3.6-.2h1Z" transform="translate(-0.04 0.02)"/><path class="cls-9" d="M273.5,195.7c.1.1-2.1,2.2-4.4,5.2s-3.7,5.7-3.8,5.7a10.84,10.84,0,0,1,.8-1.9,35.36,35.36,0,0,1,2.6-4.1,36.85,36.85,0,0,1,3.2-3.7A9.55,9.55,0,0,1,273.5,195.7Z" transform="translate(-0.04 0.02)"/><path class="cls-9" d="M278.3,197.4a46.27,46.27,0,0,0-7,3.6,42,42,0,0,0-5.8,5.3,8.47,8.47,0,0,1,1.4-1.9,22.24,22.24,0,0,1,9.3-6.4A3.94,3.94,0,0,1,278.3,197.4Z" transform="translate(-0.04 0.02)"/><path class="cls-15" d="M198.9,71.2c1.3.6,28.6,17.4,29.9,17.4s33.6-11.8,33.6-11.8L269,87s-28.3,21.8-37.6,22.1-24-7.1-24-7.1Z" transform="translate(-0.04 0.02)"/><path class="cls-15" d="M142.1,80.3s-34,34.6-33.6,43.3,4.6,13.6,7.3,14.8c3.8,1.6,46.3-3.6,46.3-3.6l2.5-16.6c-7-1.4-15.9-2.4-25.5-3.4,4.3-4.5,9.1-7.9,15-8.9l10.2-11.1C164.4,94.9,151.7,78.2,142.1,80.3Z" transform="translate(-0.04 0.02)"/><path class="cls-15" d="M140.3,90.7s-1.6-7.5,2-10.4a65.77,65.77,0,0,1,15.5-9.4c5-2.5,10.3-5.4,10.3-5.4L199,71.2s16.5,26.3,16.1,32.8a16.66,16.66,0,0,1-4.5,10.5,40,40,0,0,0,2.2,21.1C216.5,144.8,223,158,223,158s-35.4-5.7-52.1,2.5c-9,4.4-9.8,11.4-9.8,11.4l-1.3-38.5h0l-6.9-23.6Z" transform="translate(-0.04 0.02)"/><path class="cls-6" d="M163.7,118a1.21,1.21,0,0,0-.5-.1,11.48,11.48,0,0,1-1.4-.2q-1.8-.3-5.1-.6c-4.3-.5-10.2-1.1-16.8-1.7l-1.1-.1-.6-.1.5-.4c2.5-2,4.8-3.8,7-5.5a18.51,18.51,0,0,1,6.6-2.9,19.89,19.89,0,0,1,4.9-.3,5.85,5.85,0,0,1,1.3.2c.2,0,.3.1.4.1a21,21,0,0,0-6.6.4,17.1,17.1,0,0,0-6.4,3l-7,5.6-.1-.4,1.1.1c6.6.6,12.5,1.3,16.8,1.9S163.8,117.8,163.7,118Z" transform="translate(-0.04 0.02)"/><path class="cls-6" d="M127.2,115.7a4.07,4.07,0,0,1,1.4-1.2,9.12,9.12,0,0,1,4.2-1.4,8.51,8.51,0,0,1,4.4.9,3.27,3.27,0,0,1,1.5,1.1c-.1.1-.6-.3-1.6-.8a10,10,0,0,0-4.2-.7,10.18,10.18,0,0,0-4.1,1.2A6.46,6.46,0,0,0,127.2,115.7Z" transform="translate(-0.04 0.02)"/><path class="cls-6" d="M159.5,94.5c-.1,0-.4-1.3-1.1-3.2a21.51,21.51,0,0,0-4.1-7,16,16,0,0,0-3.5-2.8l-.9-.4-.9-.3a9.36,9.36,0,0,0-1.6-.4,19.48,19.48,0,0,0-2.5-.2H144a2.77,2.77,0,0,1,.9-.1,10.52,10.52,0,0,1,4.3.4l.9.3,1,.4a12.46,12.46,0,0,1,3.6,2.8,22.42,22.42,0,0,1,4.1,7.2,21.72,21.72,0,0,1,.7,2.4Z" transform="translate(-0.04 0.02)"/><path class="cls-6" d="M209.6,115.5s.4-.5,1.1-1.3a16,16,0,0,0,2.3-4,16.94,16.94,0,0,0,1.2-6.7,14.77,14.77,0,0,0-2.5-7.9,57,57,0,0,0-5.2-6.7,28.07,28.07,0,0,1-3.9-5.8,13.89,13.89,0,0,1-1.4-4.5,5.7,5.7,0,0,1-.1-1.3v-.4a10.62,10.62,0,0,0,.2,1.7,14.59,14.59,0,0,0,1.6,4.4,31.68,31.68,0,0,0,4,5.6,49,49,0,0,1,5.2,6.8,16.08,16.08,0,0,1,2.5,8.2,16.31,16.31,0,0,1-1.3,6.9,12.83,12.83,0,0,1-2.5,4l-.9.9C209.9,115.3,209.8,115.4,209.6,115.5Z" transform="translate(-0.04 0.02)"/><g class="cls-12"><path d="M155.9,116.7a4.61,4.61,0,0,1,2.8-5.6,23.48,23.48,0,0,1,3.7-.5,2,2,0,0,0,1.8-1.3c.2-1-.8-1.7-1.7-2.1a15.77,15.77,0,0,0-11.7-.3,18,18,0,0,1,3.6,9.7" transform="translate(-0.04 0.02)"/></g><g class="cls-12"><path d="M202.7,82.4c-1.6-3.2,4.2,5.8,6.9,8.1a60.51,60.51,0,0,1,7.8,7.4c2.2,2.8,3.9,5.9,3.6,9.4l-6.4-2.3s.8-5.2-2-9S203.3,83.7,202.7,82.4Z" transform="translate(-0.04 0.02)"/></g><g class="cls-12"><path d="M138.7,114.7c-1.8-1.9-4.5-2.7-7.1-3a12.33,12.33,0,0,0-4.7.3,5,5,0,0,0-3.3,3.2,1.69,1.69,0,0,0,.1,1.4,1.36,1.36,0,0,0,1.5.3,6.38,6.38,0,0,0,1.4-.8,12.28,12.28,0,0,1,12-1.3" transform="translate(-0.04 0.02)"/></g><path class="cls-6" d="M149.2,90.1a2.1,2.1,0,1,1-2.1-2.1h0a2.11,2.11,0,0,1,2.1,2.1Z" transform="translate(-0.04 0.02)"/><path class="cls-6" d="M160.6,76.2a2.1,2.1,0,1,1-2.1-2.1,2.05,2.05,0,0,1,2.1,2.1Z" transform="translate(-0.04 0.02)"/><path class="cls-6" d="M182.6,77.1a2.1,2.1,0,1,1-2.1-2.1h0a2.05,2.05,0,0,1,2.1,2.1Z" transform="translate(-0.04 0.02)"/><path class="cls-6" d="M199.7,75.7a2.1,2.1,0,1,1-2.1-2.1,2.11,2.11,0,0,1,2.1,2.1Z" transform="translate(-0.04 0.02)"/><path class="cls-6" d="M227.9,100.7a2.1,2.1,0,1,1-2.1-2.1h0a2.11,2.11,0,0,1,2.1,2.1Z" transform="translate(-0.04 0.02)"/><path class="cls-6" d="M210.7,98.6a2.1,2.1,0,1,1-2.1-2.1h0a2.18,2.18,0,0,1,2.1,2.1Z" transform="translate(-0.04 0.02)"/><path class="cls-6" d="M214.3,84.6a2.1,2.1,0,1,1-2.1-2.1h0a2.05,2.05,0,0,1,2.1,2.1Z" transform="translate(-0.04 0.02)"/><circle class="cls-6" cx="237.96" cy="90.32" r="2.1"/><path class="cls-6" d="M254.7,92.2a2.1,2.1,0,1,1-2.1-2.1h0A2.11,2.11,0,0,1,254.7,92.2Z" transform="translate(-0.04 0.02)"/><path class="cls-6" d="M201.9,114.8a2.1,2.1,0,1,1-2.1-2.1h0a2.11,2.11,0,0,1,2.1,2.1Z" transform="translate(-0.04 0.02)"/><path class="cls-6" d="M209.5,126.7a2.1,2.1,0,1,1-2.1-2.1h0a2.11,2.11,0,0,1,2.1,2.1Z" transform="translate(-0.04 0.02)"/><path class="cls-6" d="M193.8,134.8a2.1,2.1,0,1,1-2.1-2.1h0a2.05,2.05,0,0,1,2.1,2.1Z" transform="translate(-0.04 0.02)"/><path class="cls-6" d="M183.6,148a2.1,2.1,0,1,1-2.1-2.1h0a2.11,2.11,0,0,1,2.1,2.1Z" transform="translate(-0.04 0.02)"/><path class="cls-6" d="M208.6,145.8a2.1,2.1,0,1,1-2.1-2.1h.1A2,2,0,0,1,208.6,145.8Z" transform="translate(-0.04 0.02)"/><path class="cls-6" d="M167.7,157.7a2.1,2.1,0,1,1-2.1-2.1h0a2.05,2.05,0,0,1,2.1,2.1Z" transform="translate(-0.04 0.02)"/><path class="cls-6" d="M176.5,124.7a2.1,2.1,0,1,1-2.1-2.1h0a2.05,2.05,0,0,1,2.1,2.1Z" transform="translate(-0.04 0.02)"/><path class="cls-6" d="M169.4,140a2.1,2.1,0,1,1-2.1-2.1,2.05,2.05,0,0,1,2.1,2.1Z" transform="translate(-0.04 0.02)"/><path class="cls-6" d="M195.1,93a2.1,2.1,0,1,1-2.1-2.1h0a2.11,2.11,0,0,1,2.1,2.1Z" transform="translate(-0.04 0.02)"/><path class="cls-6" d="M182,109.9a2.1,2.1,0,1,1-2.1-2.1,2.05,2.05,0,0,1,2.1,2.1Z" transform="translate(-0.04 0.02)"/><path class="cls-6" d="M169.4,96.5a2.1,2.1,0,1,1-2.1-2.1,2.11,2.11,0,0,1,2.1,2.1Z" transform="translate(-0.04 0.02)"/><path class="cls-6" d="M117.5,129.1a2.1,2.1,0,1,1-2.1-2.1h0A2.11,2.11,0,0,1,117.5,129.1Z" transform="translate(-0.04 0.02)"/><path class="cls-6" d="M127.3,102.5a2.1,2.1,0,1,1-2.1-2.1h0a2.11,2.11,0,0,1,2.1,2.1Z" transform="translate(-0.04 0.02)"/><path class="cls-6" d="M146,132.1a2.1,2.1,0,1,1-2.1-2.1h0A2.11,2.11,0,0,1,146,132.1Z" transform="translate(-0.04 0.02)"/><path class="cls-6" d="M158.8,122.2a2.1,2.1,0,1,1-2.1-2.1h0A2.18,2.18,0,0,1,158.8,122.2Z" transform="translate(-0.04 0.02)"/><path class="cls-6" d="M133.2,120a2.1,2.1,0,1,1-2.1-2.1h0a2.05,2.05,0,0,1,2.1,2.1Z" transform="translate(-0.04 0.02)"/><path class="cls-6" d="M144.2,106a2.1,2.1,0,1,1-2.1-2.1h0a2.18,2.18,0,0,1,2.1,2.1Z" transform="translate(-0.04 0.02)"/><path class="cls-3" d="M135.3,227.6a62.15,62.15,0,0,1-12.9-1.4c-8.8-1.9-15.7-4.8-21-8.7A68,68,0,0,1,81,221.2c-22.7.6-43.2-6.5-68.4-26.9-1.3-2.7-2.5-5.6-3.7-8.6,24.2,19.6,50.5,31,71.9,30.5A59.6,59.6,0,0,0,97,213.6c-5.9-6.1-8.8-14.1-8.8-23.8,0-10.6,4.6-15.4,8.3-17.6,5.4-3.1,12.7-2.6,19.1,1.1,7.1,4.1,11.3,11.1,11.3,18.7a20.52,20.52,0,0,1-8.1,16,62.39,62.39,0,0,1-11.9,7.1,59.29,59.29,0,0,0,39.6,6.2c21.3-4.2,39.1-11.8,52.9-22.5A85.79,85.79,0,0,0,232.9,128v-.1c-1.2-24.7-15.6-48.7-36.7-61.4-18.3-10.9-41.7-13.9-65.9-8.4-15.1,3.4-35.5,11.5-47.6,30.8-13,20.7-9.5,46.4,1.2,58.4,7.6,8.5,22.3,5.4,34.1,3l3.9-.8c12.7-2.5,64.1-26.6,64.3-26.7l1.1,4.1c-.8.3-51.4,24.9-64.4,27.5-1.2.2-2.5.5-3.8.8-13,2.7-29.3,6.1-38.8-4.5-6.9-7.7-10.8-18.9-10.8-31.4a63.13,63.13,0,0,1,9.1-33c13-20.7,34.8-29.3,50.7-33,25.5-5.8,50.2-2.6,69.5,9,22.4,13.5,37.7,39.2,39.1,65.4.1,1.3,1.5,20.5-8.8,42.1a89.28,89.28,0,0,1-26.7,33c-14.4,11.2-32.9,19-55,23.4A49.41,49.41,0,0,1,135.3,227.6Zm-30.7-52.3a11.09,11.09,0,0,0-5.6,1.4c-3.8,2.2-5.8,6.8-5.8,13.3,0,9.3,2.9,16.5,9,21.9a55.43,55.43,0,0,0,13.6-7.7,15.45,15.45,0,0,0,6.1-12c0-5.8-3.3-11.1-8.8-14.4A17.15,17.15,0,0,0,104.6,175.3Z" transform="translate(-0.04 0.02)"/><path class="cls-6" d="M105.3,220.1a6.63,6.63,0,0,1-1.9-.9,39.07,39.07,0,0,1-4.1-3,29.77,29.77,0,0,1-3.6-3.5,6.57,6.57,0,0,1-1.2-1.7c.1,0,.5.6,1.4,1.5s2.2,2.1,3.7,3.4,2.9,2.3,3.9,3.1A4.58,4.58,0,0,1,105.3,220.1Z" transform="translate(-0.04 0.02)"/><path class="cls-6" d="M110.6,217.2a4.28,4.28,0,0,1-2.2-.6,18.09,18.09,0,0,1-4.8-2.9,21.07,21.07,0,0,1-3.9-4,8.17,8.17,0,0,1-1.2-2,16.59,16.59,0,0,1,1.5,1.8,28.63,28.63,0,0,0,4,3.8,22.23,22.23,0,0,0,4.6,2.9C109.7,216.9,110.6,217.1,110.6,217.2Z" transform="translate(-0.04 0.02)"/><path class="cls-5" d="M90.6,199.9a1.14,1.14,0,0,1-.3-.8c-.2-.8-.4-1.5-.6-2.3a29.78,29.78,0,0,1,1.1-15.4c.3-.7.6-1.5.9-2.2a3,3,0,0,1,.4-.8c.1,0-.4,1.2-1,3.1a39.14,39.14,0,0,0-1.4,7.6,33.13,33.13,0,0,0,.3,7.7A20.08,20.08,0,0,1,90.6,199.9Z" transform="translate(-0.04 0.02)"/><path class="cls-5" d="M78.2,217.8a6.72,6.72,0,0,1-2.4.4,27,27,0,0,1-11.6-1.6,9.06,9.06,0,0,1-2.2-1.1,15.46,15.46,0,0,1,2.3.7,33.87,33.87,0,0,0,5.7,1.3,28.22,28.22,0,0,0,5.8.3Z" transform="translate(-0.04 0.02)"/><path class="cls-5" d="M216,184.7a10.71,10.71,0,0,1-1.5,2.2,50,50,0,0,1-8.8,9,13.66,13.66,0,0,1-2.1,1.5,15.37,15.37,0,0,1,1.9-1.7c1.2-1.1,2.8-2.6,4.5-4.3s3.2-3.4,4.2-4.7C214.8,186,215.4,185.3,216,184.7Z" transform="translate(-0.04 0.02)"/><path class="cls-5" d="M73.4,133.8a6.94,6.94,0,0,1-.5-1.3c-.4-1.2-.7-2.5-1-3.7a56.7,56.7,0,0,1-1-5.7,51.28,51.28,0,0,1,.4-14.1,35,35,0,0,1,1.3-5.6c.4-1.2.8-2.5,1.2-3.7a3.1,3.1,0,0,1,.6-1.3,7.37,7.37,0,0,1-.4,1.4c-.3.9-.7,2.1-1.1,3.7a50.54,50.54,0,0,0-1.2,5.6,55.1,55.1,0,0,0-.6,7,41,41,0,0,0,.3,7,50.3,50.3,0,0,0,.9,5.6,25,25,0,0,0,.9,3.7A6.75,6.75,0,0,1,73.4,133.8Z" transform="translate(-0.04 0.02)"/><path class="cls-5" d="M79.5,88.9a8.25,8.25,0,0,1-1.2,2.7A8.07,8.07,0,0,1,76.6,94a11.07,11.07,0,0,1,1.2-2.7A8.07,8.07,0,0,1,79.5,88.9Z" transform="translate(-0.04 0.02)"/><path class="cls-6" d="M200.5,44.8c-1.2,1.9-.2,4.4,1.2,6.2s3,3.5,3.3,5.8c.4,3.1-2.2,5.7-5,7a6.08,6.08,0,0,0-2.4,1.5c-.8,1.1-.5,2.6-.5,3.9a6.6,6.6,0,0,1-3.3,5.6,5.33,5.33,0,0,1-6.3-1,7.85,7.85,0,0,1-1.6-3.6A16.31,16.31,0,0,1,189.5,56a68,68,0,0,1,5.7-5c1.9-1.7,3.5-3.9,3.6-6.4" transform="translate(-0.04 0.02)"/><path class="cls-6" d="M200.2,22c-1.4-3.6-5-5.8-8.7-7.1a23.75,23.75,0,0,0-16.2-.3c-7.6,2.8-12.7,9.9-16.7,16.9-1.7,3.1-3.6,6.5-7,7.6-1.8.5-3.7.3-5.6.5a11.62,11.62,0,0,0-7.5,4c-2.2,2.7-3.4,6.6-6.6,8.1-2.1.9-4.5.5-6.7.6-4.7.1-9.7,3-10.8,7.6-.7,3,.4,6.4-1,9.1-.5,1-1.3,1.8-1.8,2.9a5.19,5.19,0,0,0,7.6,6.5,11,11,0,0,1,2.1-1.4c1.6-.7,3.5.2,4.9,1.3s2.8,2.4,4.6,2.6c3.6.4,6.4-4,10.1-3.7,2,.1,3.6,1.7,5.4,2.7,3.1,1.8,4.6.2,7.2-2.3s4,7.9,10,5.2c5.6-2.5.1-12.1,2.1-11.9s7.4-.1,8.5-1.8" transform="translate(-0.04 0.02)"/><path class="cls-6" d="M200.9,32.7a13.48,13.48,0,0,0-1.6-12.3,18,18,0,0,0-7.6-5.8,19.44,19.44,0,0,0-12.8-1.2c-4.2,1.2-7.9,4.6-8.8,8.8-.4,1.9-.3,4-1.1,5.8a4.07,4.07,0,0,0-.8,2.4,1.91,1.91,0,0,0,1.6,1.5,4.44,4.44,0,0,0,2.3-.2,24.12,24.12,0,0,0,7-3.9" transform="translate(-0.04 0.02)"/><path class="cls-18" d="M187,70.4c.5-3.7.6-5.2.6-5.2s7.9-.4,10.7-10.4c1.4-5,2.1-13.3,2.4-20.1.3-6.1-2.9-14.1-9-14.1l-19.5,2.6a3.6,3.6,0,0,0-3.6,3.3l-3.1,44.4s8.8,10.4,16.4,9S187,70.4,187,70.4Z" transform="translate(-0.04 0.02)"/><path class="cls-6" d="M197.4,41.6a1.4,1.4,0,0,1-1.4,1.2,1.24,1.24,0,0,1-1.2-1.3h0a1.4,1.4,0,0,1,1.4-1.2,1.13,1.13,0,0,1,1.2,1.3Z" transform="translate(-0.04 0.02)"/><path class="cls-6" d="M198.4,38.8a16.69,16.69,0,0,0-2.5-.9c-1.4-.2-2.5.4-2.6.2s.1-.4.6-.6a4,4,0,0,1,2.1-.4,3.38,3.38,0,0,1,1.9.9C198.4,38.5,198.5,38.8,198.4,38.8Z" transform="translate(-0.04 0.02)"/><path class="cls-6" d="M184.6,40.2a1.4,1.4,0,0,1-1.4,1.2,1.24,1.24,0,0,1-1.2-1.3h0a1.4,1.4,0,0,1,1.4-1.2,1.23,1.23,0,0,1,1.2,1.3Z" transform="translate(-0.04 0.02)"/><path class="cls-6" d="M184.6,37.5c-.2.2-1.1-.7-2.5-.8s-2.5.4-2.6.2.1-.4.6-.6a4,4,0,0,1,2.1-.4,4,4,0,0,1,2,.9C184.6,37.1,184.7,37.5,184.6,37.5Z" transform="translate(-0.04 0.02)"/><path class="cls-6" d="M188.5,48.5a9,9,0,0,1,2.3-.2c.4,0,.7,0,.8-.3a2.08,2.08,0,0,0-.1-1.1c-.2-.9-.5-1.9-.8-2.9a60.84,60.84,0,0,1-1.6-7.4c.2,0,1.1,3.2,2.2,7.2.2,1,.5,1.9.7,2.9a1.7,1.7,0,0,1,0,1.4,1.47,1.47,0,0,1-.6.5h-.6A4.5,4.5,0,0,1,188.5,48.5Z" transform="translate(-0.04 0.02)"/><path class="cls-19" d="M187.6,65.2A26.3,26.3,0,0,1,174.4,60s2.6,7.4,12.9,7.6Z" transform="translate(-0.04 0.02)"/><path class="cls-19" d="M187.5,51.8a2.72,2.72,0,0,0-2.1-1.2,2.34,2.34,0,0,0-1.7.7,1.38,1.38,0,0,0-.3,1.6,1.78,1.78,0,0,0,1.8.7,6.63,6.63,0,0,0,1.9-.9.78.78,0,0,0,.4-.4c.1,0,.2-.3,0-.5" transform="translate(-0.04 0.02)"/><path class="cls-6" d="M185.3,32.5c-.2.4-1.6,0-3.2,0s-3,.3-3.2-.1c-.1-.2.2-.5.8-.8a5.3,5.3,0,0,1,4.9,0C185.1,31.9,185.4,32.3,185.3,32.5Z" transform="translate(-0.04 0.02)"/><path class="cls-6" d="M198.7,32.7c-.3.3-1.2-.1-2.4-.3s-2.2,0-2.4-.4c-.1-.2.1-.5.6-.7a3.34,3.34,0,0,1,3.8.6C198.7,32.2,198.8,32.5,198.7,32.7Z" transform="translate(-0.04 0.02)"/><path class="cls-18" d="M169.5,43.9c.1-.8-.6-2.6-1.3-2.8-2-.5-5.6-.8-6.2,4.3-.8,6.9,6.3,6.3,6.3,6.1S169.2,46.5,169.5,43.9Z" transform="translate(-0.04 0.02)"/><path class="cls-19" d="M166.5,48.6a.58.58,0,0,1-.4.1,1,1,0,0,1-.9-.1,3.36,3.36,0,0,1-1.1-2.8,3.49,3.49,0,0,1,.6-1.7,1.59,1.59,0,0,1,1-.8.67.67,0,0,1,.7.4c.1.2,0,.3,0,.4s.2-.1.1-.4-.1-.3-.2-.5a.86.86,0,0,0-.6-.3,1.69,1.69,0,0,0-1.4.9,3.29,3.29,0,0,0-.6,1.9c-.1,1.4.4,2.8,1.4,3.2a1.07,1.07,0,0,0,1.1-.1C166.5,48.7,166.5,48.6,166.5,48.6Z" transform="translate(-0.04 0.02)"/><path class="cls-6" d="M192.8,19.5a9.52,9.52,0,0,1-7.1,6.6c-1.8.4-3.9.3-5.1,1.7s-.8,3.7-1.9,5.2c-1.6,2.1-5.3,1.6-6.5,3.9-.5,1-.4,2.2-1,3.2a3.17,3.17,0,0,1-4,1.1,4.88,4.88,0,0,1-2.7-3.4,13.68,13.68,0,0,1-.3-4.5,23.54,23.54,0,0,1,1.6-8.7c2.4-5.7,11.7-13,17.8-12" transform="translate(-0.04 0.02)"/><path class="cls-6" d="M199.7,46.8c1.6-1.9,3.1-4,4.7-5.8s3.1-3.7,3.2-6a9.67,9.67,0,0,0-1.7-5.5,74.36,74.36,0,0,0-6.6-9,6.56,6.56,0,0,0-1.9-1.8,4.76,4.76,0,0,0-2.1-.7,2.54,2.54,0,0,0-1.7.4,1.42,1.42,0,0,0-.5,1.6,2.56,2.56,0,0,0,1.3,1c2.9,1.5,4.7,4.5,5.6,7.6s.6,6.1.5,9.4c-.1,2.5-.4,5.2-.7,7.6" transform="translate(-0.04 0.02)"/><path class="cls-6" d="M183.5,12.9A21,21,0,0,0,164.3,21c-2.4,3.2-4.2,7.5-8,8.8-3.1,1.1-6.6-.1-9.9.4a8.88,8.88,0,0,0-6.7,5.3c-.9,2.2-1,4.8-2.7,6.5-2.1,2.3-6,2-8.2,4.2-1.8,1.8-1.9,4.8-1.1,7.3a3.9,3.9,0,0,0,1.7,2.6,4.19,4.19,0,0,0,2.7.2,32.36,32.36,0,0,0,8.9-3.5c6.4-3.4,12.5-7.3,18.6-11.1a39.4,39.4,0,0,0,8-6.1c3-3.3,4.8-7.4,6.9-11.3s4.8-7.8,8.8-9.6" transform="translate(-0.04 0.02)"/><path class="cls-9" d="M114.8,78.9a.37.37,0,0,1-.3-.1,3,3,0,0,1-.8-.4,4.93,4.93,0,0,1-1.9-2.6,6.48,6.48,0,0,1,.6-5.1,10.5,10.5,0,0,1,5.4-4.1,58.84,58.84,0,0,1,8.1-1.8,22.26,22.26,0,0,0,4.4-1.3,8.74,8.74,0,0,0,5.5-7.6,45.07,45.07,0,0,1,.9-5.3,13.41,13.41,0,0,1,7.4-8.4,13.88,13.88,0,0,1,5.7-1.2,50.67,50.67,0,0,1,5.6.5,11.48,11.48,0,0,0,5.2-.6,5.71,5.71,0,0,0,2.1-1.3,9.51,9.51,0,0,0,1.5-2c.8-1.4,1.3-3,2.2-4.4a11.53,11.53,0,0,1,3.3-3.3,26.31,26.31,0,0,1,7.8-3,48.82,48.82,0,0,0,6.5-2,15,15,0,0,0,4.4-2.6,10.33,10.33,0,0,0,2.1-2.5,3.61,3.61,0,0,0,.5-1c-.1.3-.3.7-.4,1a10,10,0,0,1-2,2.6,17.94,17.94,0,0,1-4.4,2.7,46,46,0,0,1-6.6,2,26.21,26.21,0,0,0-7.6,3,9.79,9.79,0,0,0-3.2,3.2c-.8,1.3-1.3,2.9-2.1,4.4a6.52,6.52,0,0,1-1.6,2.1,6.78,6.78,0,0,1-2.3,1.4,12.36,12.36,0,0,1-5.4.6c-1.8-.1-3.7-.4-5.5-.4a12.53,12.53,0,0,0-5.4,1.2,13.26,13.26,0,0,0-7.1,8.1,45.07,45.07,0,0,0-.9,5.3,10.79,10.79,0,0,1-1.8,4.9,11.35,11.35,0,0,1-3.9,3,21.46,21.46,0,0,1-4.5,1.4,58.4,58.4,0,0,0-8.1,1.7,10.08,10.08,0,0,0-5.3,4,6,6,0,0,0-.7,4.9,4.76,4.76,0,0,0,1.8,2.6C114.2,78.4,114.5,78.7,114.8,78.9Z" transform="translate(-0.04 0.02)"/><path class="cls-9" d="M115.4,57.6a2.34,2.34,0,0,1,.7-.7,5,5,0,0,1,2.7-.8,13.08,13.08,0,0,1,4.4.7,13.1,13.1,0,0,0,2.7.6,5.19,5.19,0,0,0,3-.3,5.8,5.8,0,0,0,2.6-2.1,14.09,14.09,0,0,0,1.7-3.2c.4-1.2.8-2.5,1.2-3.8a32.94,32.94,0,0,1,1.7-3.9,14.66,14.66,0,0,1,6.4-6.4,11,11,0,0,1,4.7-1c1.6-.1,3.3.1,4.9-.1a7.43,7.43,0,0,0,4.3-1.7A11.6,11.6,0,0,0,159,31a16.35,16.35,0,0,1,2.4-4,13.49,13.49,0,0,1,3.5-2.8,21.93,21.93,0,0,1,7.9-2,71.14,71.14,0,0,0,7.1-.7,18.82,18.82,0,0,0,5.6-1.6,14.55,14.55,0,0,0,3.6-2.5,11.22,11.22,0,0,0,1.6-2.2,7.86,7.86,0,0,0,.4-.9l-.3.9a7.63,7.63,0,0,1-1.5,2.3,10.4,10.4,0,0,1-3.6,2.6,19,19,0,0,1-5.6,1.7c-2.2.3-4.6.4-7.1.7a23.63,23.63,0,0,0-7.8,2,9.69,9.69,0,0,0-3.4,2.7,19,19,0,0,0-2.3,3.9,13.44,13.44,0,0,1-2.7,4,7.87,7.87,0,0,1-4.6,1.9c-1.7.1-3.3,0-4.9.1a11.3,11.3,0,0,0-4.5.9,14.83,14.83,0,0,0-6.2,6.2,25.9,25.9,0,0,0-1.7,3.8c-.5,1.3-.8,2.6-1.2,3.8-.8,2.4-2.3,4.6-4.5,5.4a5.53,5.53,0,0,1-3.1.3,26.14,26.14,0,0,1-2.7-.6,12.6,12.6,0,0,0-4.3-.8,4.84,4.84,0,0,0-2.6.7C115.7,57.4,115.5,57.7,115.4,57.6Z" transform="translate(-0.04 0.02)"/><path class="cls-9" d="M145.9,78.7a.62.62,0,0,0,.4-.2,2,2,0,0,0,.8-1,2.36,2.36,0,0,0-.3-2,6.2,6.2,0,0,0-2.2-1.7,9.23,9.23,0,0,1-3-1.8,5.8,5.8,0,0,1-1.7-3.7,8.51,8.51,0,0,1,.9-4.4,9.78,9.78,0,0,1,3.3-3.4,24.18,24.18,0,0,1,8.7-2.9,47.38,47.38,0,0,0,7.2-1.8,12.91,12.91,0,0,0,4.2-2.6,5.37,5.37,0,0,0,1.2-1.4,1.09,1.09,0,0,0-.2.4,8.7,8.7,0,0,1-.9,1.1,11.91,11.91,0,0,1-4.2,2.8,34.68,34.68,0,0,1-7.2,1.9c-2.7.5-5.8,1.1-8.5,2.9a9.21,9.21,0,0,0-3.2,3.3,7.47,7.47,0,0,0-.9,4.1,5.32,5.32,0,0,0,1.5,3.4,10.53,10.53,0,0,0,2.9,1.7,4.89,4.89,0,0,1,2.2,1.8,2.76,2.76,0,0,1,.3,2.2,2.19,2.19,0,0,1-.9,1C146.2,78.6,146.1,78.7,145.9,78.7Z" transform="translate(-0.04 0.02)"/><path class="cls-18" d="M158.4,130.9a3.05,3.05,0,0,1-.8-2.4c.4-1.2,1.1-2,1.4-1.9s.2-6.3,1.4-6.7a18.29,18.29,0,0,1,2.5-.8s1.4-3.5,2.1-3.4,9.3,1.6,9.3,1.6,6.7,7.2,6.4,7.9-.8,1.4-1.8,1.1a10.6,10.6,0,0,1-2.1-1.1l3.6,3.9s-.7,3-3.6.9l1.4,1.8s-.9,3.8-5.1.6l-4.3-2.6H166l6.4,3.9s.7,1.9-1.2,1.9-6.8-2.6-6.8-2.6-2.9,1.7-3.9,1.7-1.2-1.1-1.2-1.1Z" transform="translate(-0.04 0.02)"/><path class="cls-19" d="M176.9,130.2a17.38,17.38,0,0,1-1.5-1.3,34.89,34.89,0,0,1-3.5-3.2,3,3,0,0,0-2.2-1,14.77,14.77,0,0,0-2.1.1,4.44,4.44,0,0,1-2-.1c0-.1.8,0,1.9-.2a7.84,7.84,0,0,1,2.2-.2,3.08,3.08,0,0,1,1.3.3,5,5,0,0,1,1.2.8c1.2,1.4,2.5,2.4,3.4,3.3A4.71,4.71,0,0,1,176.9,130.2Z" transform="translate(-0.04 0.02)"/><path class="cls-19" d="M180.3,129.1c-.6-.5-1.2-1.1-1.8-1.7-1.1-1.1-2.5-2.6-4.1-4.2A24,24,0,0,0,172,121a5,5,0,0,0-2.4-.9,15,15,0,0,0-2.4,0c.2-.1.4-.1.6-.2a10.87,10.87,0,0,1,1.8-.1,5,5,0,0,1,2.6.8,25,25,0,0,1,2.4,2.2c1.6,1.6,3.1,3.2,4,4.3A7.55,7.55,0,0,1,180.3,129.1Z" transform="translate(-0.04 0.02)"/><path class="cls-6" d="M183.4,49.8c.3-.1.9.8,1.8,1.7s1.8,1.5,1.7,1.8-1.3,0-2.4-1.1S183.1,49.9,183.4,49.8Z" transform="translate(-0.04 0.02)"/><path class="cls-3" d="M257.2,130l-8.9-45.7a3.5,3.5,0,0,0-4.1-2.6,3.37,3.37,0,0,0-2.6,3.9l.4,2.1-18.4,4.5a12.13,12.13,0,0,0-8.6,7.7l-11.1,2.7a7.11,7.11,0,0,0-5.2,8.7l1,4L188.8,118a5.61,5.61,0,1,0,2.7,10.9l10.9-2.7.8,3.1a7.11,7.11,0,0,0,8.7,5.2l11.3-2.8v-.1a12.33,12.33,0,0,0,10.9,2.6l16.3-4,.2,1a3.5,3.5,0,0,0,4.1,2.6,3.23,3.23,0,0,0,2.5-3.8Z" transform="translate(-0.04 0.02)"/><path class="cls-6" d="M257.2,130a2.2,2.2,0,0,1,.1.8,3.23,3.23,0,0,1-.8,2.1,3.58,3.58,0,0,1-3.4,1.2,3.69,3.69,0,0,1-2.6-2.4c-.1-.4-.2-.9-.3-1.4l.1.1-12,3-3.6.9a13.06,13.06,0,0,1-3.9.5,12.69,12.69,0,0,1-7.9-3l.3-.2v.3H223c-3.8.9-7.8,2-12.1,2.9a7.51,7.51,0,0,1-6.3-2.2,8.72,8.72,0,0,1-1.8-3.1c-.3-1.1-.6-2.3-.9-3.4l.3.2-9.2,2.3a17,17,0,0,1-2.4.5,5.84,5.84,0,0,1-6.5-5.1,5.35,5.35,0,0,1,.8-3.7,6.27,6.27,0,0,1,4.3-2.9l10.2-2.5-.2.3c-.2-.8-.4-1.7-.6-2.6a26.14,26.14,0,0,1-.6-2.7,7.85,7.85,0,0,1,1.7-5.3,9.09,9.09,0,0,1,2.1-1.8,11.42,11.42,0,0,1,2.6-.9l10.3-2.5-.2.1a12.83,12.83,0,0,1,5.2-6.3,13.09,13.09,0,0,1,3.7-1.5l3.8-.9,14.4-3.5-.2.2c-.1-.5-.2-1.1-.3-1.6a4.88,4.88,0,0,1-.1-1.7,3.64,3.64,0,0,1,4.2-3c.4.1.7.2,1,.3a4,4,0,0,1,2,2.4l2.2,11.3c1.4,7.1,2.5,13.3,3.5,18.4s1.7,9.1,2.3,11.9a24.35,24.35,0,0,0,.6,3.1,2.81,2.81,0,0,1,.1.8c.3.4.3.5.3.6a.31.31,0,0,0-.1-.2,3.09,3.09,0,0,0-.2-.8l-.6-3.1c-.5-2.8-1.3-6.8-2.4-11.9s-2.2-11.3-3.6-18.4c-.7-3.5-1.4-7.3-2.2-11.3a3.09,3.09,0,0,0-1.8-2.2,3.21,3.21,0,0,0-4.3,1.5l-.3.9a4.45,4.45,0,0,0,.1,1.6c.1.5.2,1.1.3,1.6v.2l-.2.1-14.4,3.6c-2.5.7-5.2,1-7.4,2.4a12,12,0,0,0-5,6.1v.1H215l-10.3,2.5a7.5,7.5,0,0,0-2.5.9,7.83,7.83,0,0,0-2,1.6,7.24,7.24,0,0,0-1.6,4.9,20,20,0,0,0,.5,2.6c.2.9.4,1.7.6,2.6l.1.2-.2.1-10.2,2.5a5.38,5.38,0,0,0-4,2.7,5.27,5.27,0,0,0,2,7.3,5.51,5.51,0,0,0,3.3.7c.8-.1,1.6-.4,2.3-.5l9.1-2.2.2-.1.1.2c.3,1.1.6,2.3.9,3.4a6.57,6.57,0,0,0,1.7,2.9,6.84,6.84,0,0,0,5.9,2.1c4.2-.9,8.3-2,12.1-2.9l-.1.2v-.1l-.1-.6.4.4a11.78,11.78,0,0,0,7.6,2.9,15.83,15.83,0,0,0,3.8-.5l3.6-.9,12-2.9h.1v.1c.1.5.2.9.3,1.3a2.38,2.38,0,0,0,.6,1.1,3.87,3.87,0,0,0,1.9,1.2,3.4,3.4,0,0,0,4-2.6c0-.2.1-.3.1-.5Z" transform="translate(-0.04 0.02)"/><path class="cls-6" d="M250.7,130.2c-.1,0-2.3-9.5-4.8-21.2s-4.5-21.3-4.3-21.3,2.3,9.4,4.8,21.2S250.8,130.2,250.7,130.2Z" transform="translate(-0.04 0.02)"/><path class="cls-6" d="M223.1,131.7c-.1,0-2-7.1-4.3-15.9s-3.9-16-3.8-16,2,7.1,4.3,15.9S223.2,131.7,223.1,131.7Z" transform="translate(-0.04 0.02)"/><path class="cls-6" d="M202.4,126.2a24.09,24.09,0,0,1-1.6-5.4,53.51,53.51,0,0,1-1.1-5.5,25.75,25.75,0,0,1,1.6,5.4C201.7,122.5,202.1,124.3,202.4,126.2Z" transform="translate(-0.04 0.02)"/><path class="cls-5" d="M212.2,102.5c0,.1-1.1.2-2.8.6-.9.2-1.9.4-3,.7a15.06,15.06,0,0,0-3.5,1.4,4.52,4.52,0,0,0-2.4,2.5,10.07,10.07,0,0,0-.1,3c.2,1.7.5,2.8.4,2.8a9,9,0,0,1-.8-2.8,8.6,8.6,0,0,1,0-3.2,3.36,3.36,0,0,1,1-1.6,6.1,6.1,0,0,1,1.6-1.2,14.19,14.19,0,0,1,3.6-1.4,22.6,22.6,0,0,1,3-.6A10.34,10.34,0,0,1,212.2,102.5Z" transform="translate(-0.04 0.02)"/><path class="cls-5" d="M238.5,90.3c-.3.1-.6.2-1,.3-.6.1-1.5.4-2.6.6L226.2,93a17.21,17.21,0,0,0-4.5,1.6,8.06,8.06,0,0,0-3,2.5,9.88,9.88,0,0,0-1.5,3.3,1.73,1.73,0,0,1,.1-1,6.42,6.42,0,0,1,1.2-2.5,9.25,9.25,0,0,1,3-2.6,19.64,19.64,0,0,1,4.6-1.7c3.4-.7,6.5-1.3,8.7-1.7a18.56,18.56,0,0,1,2.6-.4A6.53,6.53,0,0,1,238.5,90.3Z" transform="translate(-0.04 0.02)"/><path class="cls-5" d="M197.8,117.8a4.55,4.55,0,0,1-1.9.8c-1.2.3-3,.5-4.9.9a10.64,10.64,0,0,0-2.5.9,7,7,0,0,0-1.7,1.3,9.91,9.91,0,0,0-1.1,1.7,2.73,2.73,0,0,1,.8-1.9,6.55,6.55,0,0,1,1.8-1.5,8.25,8.25,0,0,1,2.6-1c1.9-.4,3.7-.5,4.9-.7S197.7,117.7,197.8,117.8Z" transform="translate(-0.04 0.02)"/><path class="cls-5" d="M246,82.6c0,.1-.4.1-.9.2a4.18,4.18,0,0,0-1.8,1.1,4.06,4.06,0,0,0-.8,1.9c-.1.5,0,.9-.1.9s-.2-.3-.3-.9a3,3,0,0,1,.8-2.2,3.33,3.33,0,0,1,2.1-1.1C245.7,82.4,246,82.5,246,82.6Z" transform="translate(-0.04 0.02)"/></g><g id="freepik--Lines--inject-119"><path class="cls-6" d="M391.7,75.8c-.1,0-.1.1-.2.1l-.6.3-2.2,1.1-8.2,4.2L353,95.4l-.2.1-.1-.2c-.8-1.1-1.6-2.2-2.4-3.4l-3.4-4.8.3.1L321.6,102l-7.6,4.4-2.1,1.1a2.19,2.19,0,0,0-.5.3.31.31,0,0,1-.2.1l.2-.1.5-.3,2-1.2,7.6-4.5,25.6-14.9.2-.1.1.2c1.1,1.5,2.2,3.2,3.4,4.8.8,1.2,1.6,2.3,2.4,3.4l-.3-.1,27.6-13.7,8.3-4.1,2.2-1.1.6-.3Z" transform="translate(-0.04 0.02)"/><path class="cls-6" d="M384.4,111.9a1.09,1.09,0,0,1-.5.1l-1.6.4-5.9,1.2-19.6,3.8-.2.1v-.2l-.4-2.4c-.1-.6-.2-1.1-.3-1.6l.3.2c-8,1.4-15,3-20,4.4-2.5.7-4.5,1.2-6,1.6l-1.6.4a1.27,1.27,0,0,1-.6.1,1.69,1.69,0,0,1,.5-.2l1.6-.5c1.4-.4,3.4-1.1,5.9-1.8a198.87,198.87,0,0,1,20-4.5h.2v.2c.1.5.2,1.1.3,1.6.1.8.3,1.7.4,2.4l-.3-.2,19.6-3.6,5.9-1,1.6-.3A6.37,6.37,0,0,0,384.4,111.9Z" transform="translate(-0.04 0.02)"/><path class="cls-6" d="M317.4,77.2c.1.1-2.4,5.6-5.7,12.3s-6,12.1-6.1,12.1,2.4-5.6,5.7-12.3S317.2,77.2,317.4,77.2Z" transform="translate(-0.04 0.02)"/><path class="cls-6" d="M347.2,104.2c0,.1-6.3,2.1-14.1,4.4s-14.2,4-14.3,3.9,6.3-2.1,14.1-4.4S347.2,104.1,347.2,104.2Z" transform="translate(-0.04 0.02)"/><path class="cls-6" d="M298.3,60a4.18,4.18,0,0,1,.4,1c.3.7.6,1.7,1,2.9.9,2.6,2,6.1,3.5,10.3l.1.3H303l-7.8-.2.2-.3c.2,1,.4,2,.6,3.1,1.3,7,2.4,13.4,3.3,18.1.4,2.3.7,4.1.9,5.5a10.4,10.4,0,0,1,.2,1.5c0,.2.1.4,0,.5a.9.9,0,0,1-.1-.5q-.15-.6-.3-1.5l-1.1-5.5c-.9-4.7-2.1-11.1-3.4-18.1-.2-1.1-.4-2.1-.6-3.1l-.1-.3h.3l7.8.2-.2.3L299.4,64q-.6-1.8-.9-3C298.4,60.7,298.4,60.4,298.3,60Z" transform="translate(-0.04 0.02)"/><path class="cls-6" d="M263.8,135.4c-.1-.1,5-2.6,11.3-5.6s11.5-5.3,11.5-5.1-5,2.6-11.3,5.6S263.8,135.5,263.8,135.4Z" transform="translate(-0.04 0.02)"/><path class="cls-6" d="M287.3,142.6a59.3,59.3,0,0,1,4.3-5.6,59.3,59.3,0,0,1,4.7-5.3,59.3,59.3,0,0,1-4.3,5.6A39.58,39.58,0,0,1,287.3,142.6Z" transform="translate(-0.04 0.02)"/><path class="cls-6" d="M300,177c-.1,0,.7-9.8,1.9-21.8s2.3-21.7,2.4-21.7-.7,9.8-1.9,21.8S300.2,177,300,177Z" transform="translate(-0.04 0.02)"/><path class="cls-6" d="M282.7,90.8a20.56,20.56,0,0,1,2.3,4.1,23.46,23.46,0,0,1,1.9,4.3,23.78,23.78,0,0,1-2.3-4.1A23.46,23.46,0,0,1,282.7,90.8Z" transform="translate(-0.04 0.02)"/></g></svg>