<svg id="OBJECTS" xmlns="http://www.w3.org/2000/svg" viewBox="0 0 646.31 368.7"><defs><style>.cls-1,.cls-5{fill:#efefef;}.cls-2{fill:#fff;}.cls-3{fill:#4e4e50;}.cls-4{fill:#bfbdc0;}.cls-5{opacity:0.5;}.cls-6{font-size:6.23px;font-family:Poppins-Regular, Poppins Regular;}</style></defs><rect class="cls-1" x="93.33" y="5.12" width="181.69" height="371.6" rx="27.63" transform="translate(-81.05 179.76) rotate(-45)"/><path class="cls-2" d="M104.12,21.46l-13.4,13.4a2.82,2.82,0,0,0,0,4h0a10.6,10.6,0,0,1,0,15l-43.6,43.6a10.6,10.6,0,0,1-15,0,2.82,2.82,0,0,0-4,0l-13.4,13.4a18.27,18.27,0,0,0,0,25.83L238.41,360.37a18.26,18.26,0,0,0,25.82,0l89.4-89.4a18.26,18.26,0,0,0,0-25.82L129.94,21.46A18.26,18.26,0,0,0,104.12,21.46Z" transform="translate(0 -6.39)"/><path class="cls-3" d="M69.57,62.51l-13.8,13.8a1.48,1.48,0,1,0,2.09,2.09l13.8-13.8a1.48,1.48,0,1,0-2.09-2.09Z" transform="translate(0 -6.39)"/><path class="cls-3" d="M78.7,55.47a2.09,2.09,0,1,1-3,0A2.08,2.08,0,0,1,78.7,55.47Z" transform="translate(0 -6.39)"/><polygon class="cls-3" points="31.68 131.54 26.44 131.54 26.44 126.3 27.35 126.3 27.35 130.63 31.68 130.63 31.68 131.54"/><path d="M126.79,38.15a.6.6,0,1,1-.84,0A.58.58,0,0,1,126.79,38.15Z" transform="translate(0 -6.39)"/><circle cx="127.92" cy="30.64" r="0.6"/><path d="M129.88,35.06a.58.58,0,0,1,0,.84.59.59,0,1,1-.84-.84A.58.58,0,0,1,129.88,35.06Z" transform="translate(0 -6.39)"/><rect class="cls-4" x="4.87" y="91.6" width="160.74" height="0.46" transform="translate(-39.96 80.78) rotate(-45)"/><path class="cls-2" d="M353.63,245.15l-10.79-10.8L227.61,349.58l10.8,10.79a18.26,18.26,0,0,0,25.82,0l89.4-89.4A18.26,18.26,0,0,0,353.63,245.15Z" transform="translate(0 -6.39)"/><path class="cls-5" d="M115.92,8.83A25.7,25.7,0,0,0,101,15.1c-.67.6-1.31,1.22-1.94,1.89l-1.91,2q-7.65,8-15.36,15.93c-5.12,5.3-10.32,10.54-15.48,15.8L50.76,66.42,35.07,82c-5.27,5.16-10.5,10.36-15.81,15.48l-7.94,7.7-1,1c-.33.32-.62.64-.94,1a26.29,26.29,0,0,0-1.75,2c-.27.35-.51.73-.77,1.09a10.36,10.36,0,0,0-.73,1.13l-.68,1.16-.58,1.21c-.1.2-.21.4-.3.6l-.25.63c-.16.42-.34.83-.48,1.26a25.67,25.67,0,0,0-.73,2.6c-.23.88-.33,1.78-.47,2.67-.06.45-.07.9-.11,1.36l-.06.68v.68A26.24,26.24,0,0,0,4.6,134.9a27.67,27.67,0,0,1-2-5.16,25.09,25.09,0,0,1-.86-5.52l0-.7v-.7c0-.47,0-.94,0-1.41a26.77,26.77,0,0,1,.35-2.8,26,26,0,0,1,.62-2.75c.13-.46.29-.9.44-1.35l.23-.67c.08-.22.18-.44.27-.66.19-.43.37-.87.57-1.3l.66-1.26a12.68,12.68,0,0,1,.73-1.22c.26-.4.49-.81.77-1.19A27.32,27.32,0,0,1,8.14,106c.32-.35.63-.72.95-1l1-1L17.75,96c5.12-5.31,10.32-10.54,15.48-15.81L48.82,64.48l15.7-15.59c5.26-5.16,10.5-10.36,15.8-15.48s10.6-10.26,15.93-15.36l2-1.91c.67-.64,1.39-1.27,2.12-1.86a25.39,25.39,0,0,1,10-4.81A26.24,26.24,0,0,1,115.92,8.83Z" transform="translate(0 -6.39)"/><path class="cls-3" d="M325.27,292.88,286.14,332a1,1,0,0,0,1.45,1.45l39.13-39.12a1,1,0,0,0,0-1.46A1,1,0,0,0,325.27,292.88Z" transform="translate(0 -6.39)"/><path class="cls-1" d="M205,82.28a.83.83,0,0,0,0-1.17L172.91,49a.83.83,0,0,0-1.18,0l-.49.49,33.27,33.26Z" transform="translate(0 -6.39)"/><path class="cls-1" d="M20.6,156.8a.82.82,0,0,0,0,1.17l9,9a.83.83,0,0,0,1.17,0l.49-.5L21.09,156.31Z" transform="translate(0 -6.39)"/><path class="cls-1" d="M38,174.17a.82.82,0,0,0,0,1.17L53.58,191a.83.83,0,0,0,1.17,0l.49-.49L38.46,173.68Z" transform="translate(0 -6.39)"/><path class="cls-1" d="M60.11,196.31a.83.83,0,0,0,0,1.17l15.61,15.61a.83.83,0,0,0,1.17,0l.49-.49L60.6,195.82Z" transform="translate(0 -6.39)"/><text class="cls-6" transform="translate(19.51 116.38) rotate(-45)">3:15</text><path d="M30.43,113,28,111.53,25.58,113,28,107Zm-3.77-1.28,1.35-.83,1.34.83L28,108.41Z" transform="translate(0 -6.39)"/><rect x="109.68" y="26.06" width="2.96" height="2.96" transform="translate(13.09 80.28) rotate(-45)"/><path d="M115.52,21.93l-1-1L108,27.53l3.19,3.18,6.57-6.57-1-1,.58-.58-1.25-1.25Zm1.31.66-.58.58,1,1-6,6.05-2.66-2.66,6-6.05,1,1,.58-.59Z" transform="translate(0 -6.39)"/><path d="M105.84,34.08a.66.66,0,1,0,.93,0A.65.65,0,0,0,105.84,34.08Z" transform="translate(0 -6.39)"/><path d="M104.09,34.64a.44.44,0,0,0,.43.44.44.44,0,0,0,.44-.44,1.47,1.47,0,0,1,1.44-1.44.44.44,0,0,0,.31-.13.48.48,0,0,0,.12-.31.43.43,0,0,0-.43-.43A2.36,2.36,0,0,0,104.09,34.64Z" transform="translate(0 -6.39)"/><path d="M106.4,30.79a3.9,3.9,0,0,0-2.72,1.13,3.83,3.83,0,0,0-1.13,2.72.44.44,0,1,0,.87,0,3.05,3.05,0,0,1,3-3,.44.44,0,0,0,.31-.13.44.44,0,0,0-.31-.74Z" transform="translate(0 -6.39)"/><path d="M99.57,36.12a.42.42,0,0,0,0,.59L102,39.12a.41.41,0,0,0,.58,0,.4.4,0,0,0,0-.59l-2.41-2.41A.42.42,0,0,0,99.57,36.12Z" transform="translate(0 -6.39)"/><path d="M99.23,37.91a.39.39,0,0,0,0,.58l1.69,1.7a.42.42,0,0,0,.59-.59l-1.7-1.69A.41.41,0,0,0,99.23,37.91Z" transform="translate(0 -6.39)"/><path d="M98.75,39.58a.42.42,0,0,0,0,.59l1.09,1.1a.42.42,0,0,0,.59-.59l-1.09-1.1A.42.42,0,0,0,98.75,39.58Z" transform="translate(0 -6.39)"/><path d="M98,41a.41.41,0,0,0,0,.58l.77.77a.41.41,0,0,0,.58,0,.4.4,0,0,0,0-.59L98.59,41A.4.4,0,0,0,98,41Z" transform="translate(0 -6.39)"/><rect class="cls-1" x="371.28" y="4.76" width="181.69" height="371.6" rx="27.63" transform="translate(0.61 376.2) rotate(-45)"/><path class="cls-2" d="M382.08,21.11l-13.4,13.4a2.82,2.82,0,0,0,0,4h0a10.61,10.61,0,0,1,0,15L325.07,97.11a10.61,10.61,0,0,1-15,0,2.82,2.82,0,0,0-4,0l-13.4,13.4a18.26,18.26,0,0,0,0,25.82L516.36,360a18.26,18.26,0,0,0,25.82,0l89.41-89.41a18.26,18.26,0,0,0,0-25.82L407.9,21.11A18.26,18.26,0,0,0,382.08,21.11Z" transform="translate(0 -6.39)"/><path class="cls-3" d="M347.53,62.16,333.73,76a1.47,1.47,0,1,0,2.08,2.09l13.81-13.8a1.49,1.49,0,0,0,0-2.09A1.47,1.47,0,0,0,347.53,62.16Z" transform="translate(0 -6.39)"/><path class="cls-3" d="M356.66,55.11a2.09,2.09,0,1,1-3,0A2.09,2.09,0,0,1,356.66,55.11Z" transform="translate(0 -6.39)"/><polygon class="cls-3" points="309.64 131.19 304.4 131.19 304.4 125.95 305.31 125.95 305.31 130.28 309.64 130.28 309.64 131.19"/><path d="M404.75,37.8a.58.58,0,0,1,0,.84.6.6,0,1,1,0-.84Z" transform="translate(0 -6.39)"/><circle cx="405.87" cy="30.28" r="0.6"/><path d="M407.84,34.7a.6.6,0,0,1-.85.85.6.6,0,1,1,.85-.85Z" transform="translate(0 -6.39)"/><rect class="cls-4" x="282.83" y="91.24" width="160.74" height="0.46" transform="translate(41.7 277.23) rotate(-45)"/><path class="cls-2" d="M631.59,244.79,620.8,234,505.57,349.23,516.36,360a18.26,18.26,0,0,0,25.82,0l89.41-89.41A18.26,18.26,0,0,0,631.59,244.79Z" transform="translate(0 -6.39)"/><path class="cls-5" d="M393.88,8.48A25.7,25.7,0,0,0,379,14.75c-.68.6-1.31,1.22-1.94,1.89l-1.91,2q-7.65,8-15.36,15.93c-5.13,5.3-10.32,10.53-15.48,15.8l-15.59,15.7L313,81.66c-5.26,5.16-10.5,10.36-15.8,15.48l-7.94,7.7-1,1c-.33.32-.62.64-.94,1a26.29,26.29,0,0,0-1.75,2c-.28.34-.51.72-.77,1.09a10.24,10.24,0,0,0-.73,1.12l-.68,1.17-.59,1.21c-.09.2-.2.4-.29.6l-.25.63c-.16.42-.34.83-.48,1.26a25.67,25.67,0,0,0-.73,2.6,24,24,0,0,0-.47,2.67c-.06.45-.07.9-.12,1.35l-.05.68v.68a26.18,26.18,0,0,0,2.13,10.69,26.78,26.78,0,0,1-2-5.16,25.5,25.5,0,0,1-.85-5.51l0-.7v-.71c0-.47,0-.94,0-1.4a23.8,23.8,0,0,1,.35-2.8,26.76,26.76,0,0,1,.62-2.76c.13-.45.29-.89.44-1.34l.23-.67c.08-.22.18-.44.27-.66.19-.43.37-.87.57-1.3l.66-1.26c.21-.42.47-.82.72-1.22s.5-.81.78-1.2a27.17,27.17,0,0,1,1.78-2.23c.31-.35.63-.72.95-1.05l1-1,7.7-7.94c5.12-5.31,10.32-10.54,15.48-15.81l15.59-15.69,15.7-15.59c5.26-5.16,10.5-10.36,15.8-15.48S368.88,22.8,374.2,17.7l2-1.91c.67-.64,1.38-1.27,2.12-1.86a25.39,25.39,0,0,1,10-4.81A26.24,26.24,0,0,1,393.88,8.48Z" transform="translate(0 -6.39)"/><path class="cls-3" d="M603.22,292.53,564.1,331.65a1,1,0,0,0,0,1.46,1,1,0,0,0,1.45,0L604.68,294a1,1,0,0,0,0-1.45A1,1,0,0,0,603.22,292.53Z" transform="translate(0 -6.39)"/><path class="cls-1" d="M483,81.93a.83.83,0,0,0,0-1.17l-32.1-32.1a.83.83,0,0,0-1.17,0l-.49.49,33.26,33.27Z" transform="translate(0 -6.39)"/><path class="cls-1" d="M298.55,156.45a.83.83,0,0,0,0,1.17l9,8.95a.82.82,0,0,0,1.17,0l.49-.49L299,156Z" transform="translate(0 -6.39)"/><path class="cls-1" d="M315.93,173.82a.82.82,0,0,0,0,1.17l15.6,15.61a.85.85,0,0,0,1.18,0l.49-.49-16.78-16.78Z" transform="translate(0 -6.39)"/><path class="cls-1" d="M338.07,196a.82.82,0,0,0,0,1.17l15.6,15.61a.85.85,0,0,0,1.18,0l.49-.49-16.78-16.78Z" transform="translate(0 -6.39)"/><text class="cls-6" transform="translate(297.47 116.03) rotate(-45)">3:15</text><path d="M308.38,112.68l-2.42-1.5-2.42,1.5,2.42-6Zm-3.76-1.28,1.34-.83,1.35.83L306,108.06Z" transform="translate(0 -6.39)"/><rect x="387.63" y="25.7" width="2.96" height="2.96" transform="translate(94.75 276.72) rotate(-45)"/><path d="M393.48,21.57l-1-1-6.57,6.56,3.18,3.19,6.57-6.57-1-1,.58-.58L394.06,21Zm1.31.67-.59.58,1,1-6.05,6.05-2.66-2.67,6.05-6,1,1,.58-.59Z" transform="translate(0 -6.39)"/><path d="M383.8,33.73a.66.66,0,1,0,.93,0A.65.65,0,0,0,383.8,33.73Z" transform="translate(0 -6.39)"/><path d="M382.05,34.29a.43.43,0,0,0,.86,0,1.48,1.48,0,0,1,1.45-1.44.4.4,0,0,0,.3-.13.44.44,0,0,0,.13-.31.43.43,0,0,0-.43-.43A2.36,2.36,0,0,0,382.05,34.29Z" transform="translate(0 -6.39)"/><path d="M384.36,30.44a3.86,3.86,0,0,0-3.85,3.85.43.43,0,0,0,.43.43.44.44,0,0,0,.44-.43,3.05,3.05,0,0,1,3-3,.4.4,0,0,0,.3-.13.42.42,0,0,0,.13-.3A.44.44,0,0,0,384.36,30.44Z" transform="translate(0 -6.39)"/><path d="M377.53,35.77a.41.41,0,0,0,0,.58l2.41,2.42a.42.42,0,1,0,.59-.59l-2.41-2.41A.41.41,0,0,0,377.53,35.77Z" transform="translate(0 -6.39)"/><path d="M377.18,37.56a.41.41,0,0,0,0,.58l1.7,1.7a.42.42,0,0,0,.59-.59l-1.7-1.69A.4.4,0,0,0,377.18,37.56Z" transform="translate(0 -6.39)"/><path d="M376.71,39.23a.41.41,0,0,0,0,.59l1.09,1.09a.41.41,0,0,0,.59,0,.41.41,0,0,0,0-.58l-1.1-1.1A.41.41,0,0,0,376.71,39.23Z" transform="translate(0 -6.39)"/><path d="M376,40.63a.4.4,0,0,0,0,.59l.76.77a.42.42,0,0,0,.59-.59l-.77-.77A.41.41,0,0,0,376,40.63Z" transform="translate(0 -6.39)"/></svg>